<?xml version="1.0" encoding="UTF-8" standalone="no"?>
<!-- Created with Inkscape (http://www.inkscape.org/) -->

<svg
   xmlns:dc="http://purl.org/dc/elements/1.1/"
   xmlns:cc="http://creativecommons.org/ns#"
   xmlns:rdf="http://www.w3.org/1999/02/22-rdf-syntax-ns#"
   xmlns:svg="http://www.w3.org/2000/svg"
   xmlns="http://www.w3.org/2000/svg"
   xmlns:sodipodi="http://sodipodi.sourceforge.net/DTD/sodipodi-0.dtd"
   xmlns:inkscape="http://www.inkscape.org/namespaces/inkscape"
   width="48.576237mm"
   height="31.67144mm"
   viewBox="0 0 48.576237 31.67144"
   version="1.1"
   id="svg8"
   inkscape:version="0.92.4 (5da689c313, 2019-01-14)"
   sodipodi:docname="SALUD DENTAL logo.svg">
  <defs
     id="defs2">
    <clipPath
       clipPathUnits="userSpaceOnUse"
       id="clipPath141">
      <rect
         id="rect143"
         width="137.69643"
         height="89.777313"
         x="124.0758"
         y="-383.84991"
         style="stroke-width:0.75"
         transform="scale(1,-1)" />
    </clipPath>
  </defs>
  <sodipodi:namedview
     id="base"
     pagecolor="#ffffff"
     bordercolor="#666666"
     borderopacity="1.0"
     inkscape:pageopacity="0.0"
     inkscape:pageshadow="2"
     inkscape:zoom="0.98994949"
     inkscape:cx="166.30479"
     inkscape:cy="324.35555"
     inkscape:document-units="mm"
     inkscape:current-layer="layer1"
     showgrid="false"
     inkscape:window-width="2560"
     inkscape:window-height="1406"
     inkscape:window-x="0"
     inkscape:window-y="18"
     inkscape:window-maximized="1" />
  <metadata
     id="metadata5">
    <rdf:RDF>
      <cc:Work
         rdf:about="">
        <dc:format>image/svg+xml</dc:format>
        <dc:type
           rdf:resource="http://purl.org/dc/dcmitype/StillImage" />
        <dc:title />
      </cc:Work>
    </rdf:RDF>
  </metadata>
  <g
     inkscape:label="Layer 1"
     inkscape:groupmode="layer"
     id="layer1"
     transform="translate(-34.777191,-153.84164)">
    <g
       transform="matrix(0.35277777,0,0,-0.35277777,-8.9939933,289.25536)"
       inkscape:label="SALUD DENTAL"
       id="g37"
       clip-path="url(#clipPath141)">
      <path
         inkscape:connector-curvature="0"
         id="path39"
         style="fill:#7b7979;fill-opacity:1;fill-rule:nonzero;stroke:none"
         d="m 184.9901,85.2321 0.9961,0.5307 c 0.184,-0.6254 0.504,-1.1115 0.9575,-1.4556 0.4567,-0.3467 1.0021,-0.5188 1.6396,-0.5188 0.8033,0 1.4318,0.2373 1.8825,0.7115 0.4535,0.4774 0.6789,1.1325 0.6789,1.9744 0,0.6137 -0.1514,1.1236 -0.4567,1.5298 -0.3024,0.4059 -0.9575,0.8745 -1.9564,1.408 -1.2807,0.6761 -2.1317,1.2719 -2.5555,1.7878 -0.424,0.5156 -0.6344,1.1353 -0.6344,1.8587 0,0.9042 0.3053,1.6393 0.9159,2.2056 0.6109,0.5661 1.4023,0.8507 2.3746,0.8507 0.6344,0 1.1888,-0.1332 1.6602,-0.4031 0.4714,-0.2698 0.8538,-0.6729 1.1503,-1.2095 l -0.8895,-0.5395 c -0.1837,0.3646 -0.4476,0.6432 -0.7855,0.8329 -0.3381,0.1927 -0.7381,0.2877 -1.2035,0.2877 -0.6256,0 -1.1206,-0.184 -1.4913,-0.5514 -0.3705,-0.3676 -0.5573,-0.8657 -0.5573,-1.4913 0,-0.8892 0.7353,-1.7223 2.2056,-2.493 0.2667,-0.1364 0.4683,-0.2461 0.6077,-0.3204 1.082,-0.5958 1.8054,-1.159 2.17,-1.6897 0.3648,-0.5306 0.5485,-1.2183 0.5485,-2.0633 0,-1.1413 -0.332,-2.0455 -0.999,-2.7153 -0.667,-0.667 -1.5743,-1.0021 -2.7215,-1.0021 -0.8331,0 -1.5474,0.2075 -2.1404,0.6197 -0.5959,0.415 -1.0613,1.0343 -1.3964,1.8555 z m 17.9918,1.8082 c 0,-0.996 0.2253,-1.7637 0.6729,-2.3003 0.4476,-0.5397 1.0911,-0.8093 1.9239,-0.8093 0.8093,0 1.4496,0.2934 1.9151,0.8805 0.4654,0.5899 0.6996,1.3992 0.6996,2.4279 0,0.9456 -0.231,1.6869 -0.6965,2.2294 -0.4626,0.5423 -1.097,0.8121 -1.9003,0.8121 -0.8065,0 -1.4409,-0.2874 -1.9123,-0.8657 -0.4683,-0.5751 -0.7024,-1.3666 -0.7024,-2.3746 z m 5.1939,-3.7678 v 1.4052 c -0.2551,-0.5661 -0.6137,-0.999 -1.0732,-1.2955 -0.4595,-0.2993 -1.002,-0.4476 -1.6276,-0.4476 -1.1087,0 -1.9982,0.3793 -2.674,1.1384 -0.6729,0.756 -1.0108,1.7578 -1.0108,3.0031 0,1.2302 0.3319,2.2382 0.9989,3.0149 0.667,0.7795 1.5268,1.1679 2.5793,1.1679 0.6551,0 1.2211,-0.1423 1.6985,-0.4298 0.4802,-0.2846 0.8478,-0.7055 1.1089,-1.26 v 1.4052 h 1.0673 v -7.7018 z m 14.7005,-0.1777 h -1.1027 v 13.4649 h 1.1027 z m 14.114,7.7017 v -3.8477 c 0,-1.1682 0.1661,-1.9953 0.498,-2.4755 0.3351,-0.4802 0.8983,-0.7203 1.6897,-0.7203 0.7886,0 1.3519,0.2429 1.6929,0.7291 0.3407,0.4864 0.5128,1.3104 0.5128,2.4667 v 3.8477 h 1.0672 v -4.3934 c 0,-1.1976 -0.2758,-2.1047 -0.8271,-2.7212 -0.5485,-0.6169 -1.3578,-0.925 -2.4251,-0.925 -1.07,0 -1.8853,0.3081 -2.4426,0.925 -0.5544,0.6165 -0.8331,1.5236 -0.8331,2.7212 v 4.3934 z m 16.1206,-3.9339 c 0,-0.9961 0.2254,-1.7637 0.6729,-2.3003 0.4479,-0.5397 1.0911,-0.8093 1.9242,-0.8093 0.8033,0 1.4377,0.2934 1.9001,0.8804 0.4654,0.5899 0.6967,1.3992 0.6967,2.4279 0,0.9457 -0.2282,1.6869 -0.6877,2.2295 -0.4566,0.5422 -1.0879,0.8121 -1.8915,0.8121 -0.8062,0 -1.4437,-0.2874 -1.912,-0.8657 -0.4683,-0.5752 -0.7027,-1.3666 -0.7027,-2.3746 z m 5.1761,-3.7678 v 1.4051 c -0.2549,-0.572 -0.6106,-1.0048 -1.0673,-1.3013 -0.4595,-0.2934 -0.9961,-0.4417 -1.6186,-0.4417 -1.1058,0 -1.995,0.3793 -2.6711,1.1384 -0.6729,0.756 -1.0108,1.7578 -1.0108,3.003 0,1.2303 0.3322,2.2383 0.9992,3.015 0.667,0.7795 1.5268,1.1678 2.579,1.1678 0.6551,0 1.2186,-0.1423 1.6897,-0.4297 0.4714,-0.2846 0.8391,-0.7055 1.0999,-1.26 v 7.1683 h 1.0851 V 83.0948 Z" />
      <path
         inkscape:connector-curvature="0"
         id="path41"
         style="fill:#80ce4b;fill-opacity:1;fill-rule:nonzero;stroke:none"
         d="m 321.73,83.0948 v 12.7179 h 6.2966 v -1.0851 h -5.1406 v -3.9844 h 4.9507 v -1.0851 h -4.9507 v -6.5633 z m 9.184,7.7017 v -3.8477 c 0,-1.1682 0.1661,-1.9953 0.498,-2.4755 0.3351,-0.4802 0.8983,-0.7203 1.6898,-0.7203 0.7886,0 1.3518,0.2429 1.6928,0.7291 0.3407,0.4864 0.5128,1.3104 0.5128,2.4667 v 3.8477 h 1.0672 v -4.3934 c 0,-1.1976 -0.2758,-2.1047 -0.8271,-2.7212 -0.5485,-0.6169 -1.3578,-0.925 -2.425,-0.925 -1.0701,0 -1.8854,0.3081 -2.4427,0.925 -0.5544,0.6165 -0.8331,1.5236 -0.8331,2.7212 v 4.3934 z m 8.5348,-0.9071 h -1.423 v 0.9071 h 1.423 v 3.1663 h 1.0494 v -3.1663 h 1.5474 v -0.9071 h -1.5474 v -6.7946 h -1.0494 z m 5.2472,0.9071 v -3.8477 c 0,-1.1682 0.1661,-1.9953 0.4981,-2.4755 0.335,-0.4802 0.8983,-0.7203 1.6897,-0.7203 0.7886,0 1.3519,0.2429 1.6929,0.7291 0.3407,0.4864 0.5127,1.3104 0.5127,2.4667 v 3.8477 h 1.0673 v -4.3934 c 0,-1.1976 -0.2758,-2.1047 -0.8272,-2.7212 -0.5485,-0.6169 -1.3578,-0.925 -2.425,-0.925 -1.0701,0 -1.8853,0.3081 -2.4426,0.925 -0.5545,0.6165 -0.8331,1.5236 -0.8331,2.7212 v 4.3934 z m 9.3708,-1.5474 c 0.3943,0.667 0.7795,1.1384 1.1591,1.417 0.3795,0.2759 0.8212,0.415 1.3252,0.415 0.1511,0 0.3024,-0.0147 0.4564,-0.0445 0.1542,-0.0266 0.3055,-0.068 0.4566,-0.1185 l -0.3469,-1.008 c -0.1157,0.0358 -0.237,0.0624 -0.3617,0.0862 -0.1245,0.0235 -0.243,0.0354 -0.3615,0.0354 -0.6403,0 -1.1919,-0.3024 -1.6455,-0.9042 -0.4535,-0.6018 -0.6817,-1.3487 -0.6817,-2.247 v -3.7857 h -1.0672 v 7.7017 h 1.0672 z m 5.0338,-2.3865 c 0,-0.9961 0.2253,-1.7637 0.6729,-2.3003 0.4476,-0.5397 1.0911,-0.8093 1.9239,-0.8093 0.8093,0 1.4496,0.2934 1.9151,0.8804 0.4654,0.5899 0.6996,1.3992 0.6996,2.4279 0,0.9457 -0.2311,1.6869 -0.6965,2.2295 -0.4626,0.5422 -1.097,0.8121 -1.9004,0.8121 -0.8064,0 -1.4408,-0.2874 -1.9122,-0.8657 -0.4683,-0.5752 -0.7024,-1.3666 -0.7024,-2.3746 z m 5.1939,-3.7678 v 1.4051 c -0.2551,-0.566 -0.6137,-0.9989 -1.0732,-1.2954 -0.4595,-0.2993 -1.0021,-0.4476 -1.6277,-0.4476 -1.1086,0 -1.9981,0.3793 -2.6739,1.1384 -0.6729,0.756 -1.0108,1.7578 -1.0108,3.003 0,1.2303 0.3319,2.2383 0.9989,3.015 0.667,0.7795 1.5268,1.1678 2.5793,1.1678 0.655,0 1.2211,-0.1423 1.6985,-0.4297 0.4802,-0.2846 0.8478,-0.7055 1.1089,-1.26 v 1.4051 h 1.0672 v -7.7017 z m 17.9232,0 v 12.7179 h 1.1559 V 84.1799 h 4.358 v -1.0851 z m 7.4202,6.7946 h -1.423 v 0.9071 h 1.423 v 3.1663 h 1.0494 v -3.1663 h 1.5474 v -0.9071 h -1.5474 v -6.7946 h -1.0494 z m 19.3283,0.2668 h 1.4409 c 1.0584,0 1.8082,0.1749 2.2442,0.5218 0.4357,0.347 0.6551,0.925 0.6551,1.7343 0,0.8745 -0.2135,1.491 -0.6373,1.8499 -0.4269,0.3586 -1.18,0.5366 -2.262,0.5366 h -1.4409 z m 0,-6.0653 h 1.4766 c 0.8359,0 1.4139,0.0354 1.7342,0.1037 0.3172,0.0712 0.5868,0.1897 0.8062,0.3558 0.2699,0.2103 0.4893,0.498 0.6494,0.8657 0.163,0.3676 0.243,0.7617 0.243,1.1798 0,0.5099 -0.089,0.9575 -0.2699,1.343 -0.1777,0.3853 -0.4269,0.673 -0.7441,0.8654 -0.2194,0.1276 -0.4771,0.2194 -0.7767,0.273 -0.2962,0.0561 -0.7617,0.0828 -1.3904,0.0828 h -0.2517 -1.4766 z m -1.1559,-0.9961 v 12.7179 h 2.2056 c 0.9663,0 1.6659,-0.0476 2.0928,-0.1394 0.4298,-0.0919 0.7946,-0.252 1.097,-0.4774 0.421,-0.3172 0.741,-0.7084 0.9632,-1.1679 0.2194,-0.4595 0.3291,-0.9694 0.3291,-1.5239 0,-0.6789 -0.1777,-1.254 -0.5306,-1.7311 -0.3526,-0.4745 -0.8388,-0.7858 -1.4584,-0.9368 0.8152,-0.1216 1.4556,-0.4476 1.9179,-0.9814 0.4626,-0.5335 0.6939,-1.2095 0.6939,-2.0248 0,-0.5958 -0.089,-1.1265 -0.2698,-1.5888 -0.1781,-0.4626 -0.4507,-0.8629 -0.8153,-1.2008 -0.3705,-0.3466 -0.8152,-0.5898 -1.3371,-0.7321 -0.5216,-0.1423 -1.408,-0.2135 -2.6651,-0.2135 z m 9.9105,6.7946 h -1.423 v 0.9071 h 1.423 v 3.1663 h 1.0493 v -3.1663 h 1.5475 v -0.9071 h -1.5475 v -6.7946 h -1.0493 z" />
      <path
         inkscape:connector-curvature="0"
         id="path43"
         style="fill:#7b7979;fill-opacity:1;fill-rule:nonzero;stroke:none"
         d="m 188.2681,150.1189 h 2.3261 l -0.8739,2.8318 c -0.0261,0.0862 -0.0641,0.2242 -0.11,0.4161 -0.0482,0.1919 -0.108,0.438 -0.1823,0.7381 -0.0499,-0.21 -0.0997,-0.4121 -0.1499,-0.604 -0.0479,-0.1902 -0.0978,-0.3742 -0.148,-0.5502 z m -3.278,-3.204 2.9622,8.5799 h 2.9299 l 2.9639,-8.5799 h -2.3258 l -0.434,1.5361 h -3.3222 l -0.4459,-1.5361 z m 11.3159,0 -2.662,5.9159 h 2.228 l 1.008,-2.6119 c 0.0119,-0.028 0.0238,-0.0601 0.04,-0.1 0.1301,-0.3442 0.21,-0.618 0.2401,-0.826 0.0278,0.1919 0.1037,0.4478 0.2299,0.7679 0.0261,0.07 0.0459,0.1221 0.0581,0.1581 l 1.008,2.6119 h 2.1719 l -2.6881,-5.9159 z m 9.502,2.952 c 0,0.46 -0.1221,0.824 -0.3659,1.0899 -0.2421,0.2662 -0.576,0.398 -0.9961,0.398 -0.4221,0 -0.754,-0.1318 -0.9961,-0.398 -0.2418,-0.2659 -0.362,-0.6299 -0.362,-1.0899 0,-0.4641 0.1202,-0.828 0.36,-1.0919 0.2401,-0.2642 0.572,-0.396 0.9981,-0.396 0.4201,0 0.754,0.1318 0.9961,0.3979 0.2438,0.2659 0.3659,0.6299 0.3659,1.09 z m 1.8519,6.1319 v -9.0839 h -1.9219 v 0.9601 c -0.2662,-0.398 -0.5641,-0.6962 -0.896,-0.8921 -0.332,-0.1981 -0.6999,-0.2959 -1.1061,-0.2959 -0.832,0 -1.4939,0.288 -1.9859,0.862 -0.4921,0.574 -0.7379,1.3479 -0.7379,2.3199 0,0.9419 0.2458,1.7039 0.7359,2.2838 0.4901,0.58 1.1279,0.87 1.9159,0.87 0.5,0 0.9079,-0.0899 1.222,-0.2699 0.3141,-0.18 0.5942,-0.4819 0.8399,-0.9039 -0.0238,0.14 -0.0399,0.2999 -0.0518,0.4779 -0.012,0.178 -0.0179,0.3722 -0.0179,0.578 v 3.094 z m 6.0599,-6.12 c 0,0.462 -0.1219,0.826 -0.3679,1.0961 -0.2461,0.2699 -0.582,0.404 -1.008,0.404 -0.4261,0 -0.76,-0.1341 -1.0041,-0.402 -0.2437,-0.2662 -0.3659,-0.6341 -0.3659,-1.0981 0,-0.4601 0.1222,-0.8241 0.3679,-1.0899 0.2461,-0.2659 0.5803,-0.398 1.0021,-0.398 0.426,0 0.7619,0.1321 1.008,0.398 0.246,0.2658 0.3679,0.6298 0.3679,1.0899 z m 1.838,2.952 v -5.9159 h -1.9199 v 0.9601 c -0.2738,-0.4102 -0.58,-0.7101 -0.9218,-0.902 -0.3422,-0.1902 -0.7441,-0.286 -1.2042,-0.286 -0.79,0 -1.4199,0.288 -1.8938,0.864 -0.472,0.576 -0.7081,1.3498 -0.7081,2.3179 0,0.966 0.248,1.7319 0.7421,2.302 0.4938,0.568 1.1579,0.8518 1.9939,0.8518 0.4459,0 0.83,-0.0958 1.152,-0.2858 0.322,-0.1902 0.5978,-0.4821 0.828,-0.8781 v 0.972 z m 1.5021,-4.9558 c 0,0.3319 0.1119,0.61 0.3381,0.8359 0.224,0.2259 0.5021,0.3399 0.836,0.3399 0.3399,0 0.6219,-0.114 0.8498,-0.3399 0.2262,-0.2259 0.3402,-0.504 0.3402,-0.8359 0,-0.3323 -0.114,-0.612 -0.3442,-0.8422 -0.2279,-0.2299 -0.5099,-0.3458 -0.8458,-0.3458 -0.33,0 -0.6061,0.1159 -0.834,0.3458 -0.2262,0.2302 -0.3401,0.5099 -0.3401,0.8422 z m 7.7159,-0.9601 v 8.5799 h 5.256 v -1.8839 h -2.9758 v -1.4879 h 2.8057 v -1.836 h -2.8057 v -1.4522 h 2.9758 v -1.9199 z m 6.1061,0.4921 0.434,1.5959 c 0.3061,-0.2659 0.64,-0.47 1.006,-0.614 0.3659,-0.142 0.7339,-0.214 1.1041,-0.214 0.2619,0 0.4617,0.0419 0.5978,0.1258 0.1381,0.0842 0.2061,0.2061 0.2061,0.3663 0,0.2619 -0.2761,0.4578 -0.828,0.5879 -0.18,0.0419 -0.326,0.0799 -0.434,0.11 -0.6259,0.172 -1.078,0.3979 -1.362,0.678 -0.2821,0.2781 -0.4241,0.642 -0.4241,1.086 0,0.576 0.216,1.034 0.648,1.3779 0.432,0.3441 1.0159,0.5159 1.7541,0.5159 0.3801,0 0.7659,-0.044 1.1579,-0.1318 0.3921,-0.0882 0.794,-0.224 1.2042,-0.4079 l -0.4343,-1.44 c -0.2758,0.1879 -0.5578,0.3319 -0.8439,0.4297 -0.286,0.0981 -0.57,0.1463 -0.856,0.1463 -0.2378,0 -0.4178,-0.0383 -0.54,-0.1123 -0.1219,-0.074 -0.182,-0.182 -0.182,-0.322 0,-0.2098 0.2741,-0.3878 0.822,-0.5338 0.1262,-0.034 0.22,-0.0601 0.2821,-0.0759 0.722,-0.2061 1.224,-0.4502 1.508,-0.7283 0.2821,-0.2797 0.4241,-0.6579 0.4241,-1.1338 0,-0.6041 -0.2322,-1.0939 -0.6982,-1.4661 -0.464,-0.3739 -1.08,-0.5598 -1.8439,-0.5598 -0.5199,0 -1.0021,0.0598 -1.448,0.178 -0.4461,0.1199 -0.864,0.2999 -1.254,0.542 z m 8.2219,2.448 c 0,-0.4601 0.1199,-0.8241 0.36,-1.0902 0.2401,-0.2659 0.572,-0.398 0.9941,-0.398 0.4218,0 0.756,0.1321 0.9998,0.398 0.244,0.2661 0.3662,0.6301 0.3662,1.0902 0,0.4597 -0.1222,0.8237 -0.3642,1.0899 -0.2418,0.2659 -0.576,0.398 -1.0018,0.398 -0.4221,0 -0.754,-0.1321 -0.9941,-0.398 -0.2401,-0.2662 -0.36,-0.6302 -0.36,-1.0899 z m -1.8519,-5.5562 v 8.532 h 1.9219 v -0.9958 c 0.2659,0.3999 0.5641,0.6979 0.896,0.8937 0.332,0.1962 0.6999,0.294 1.1061,0.294 0.832,0 1.4939,-0.2838 1.986,-0.8518 0.4918,-0.5701 0.7378,-1.34 0.7378,-2.312 0,-0.9462 -0.244,-1.7121 -0.7339,-2.296 -0.4901,-0.584 -1.1301,-0.8759 -1.9179,-0.8759 -0.5,0 -0.9082,0.0918 -1.222,0.2758 -0.3141,0.182 -0.5942,0.4841 -0.8402,0.9059 0.0201,-0.1159 0.034,-0.2599 0.0442,-0.4257 0.01,-0.1681 0.0139,-0.3762 0.0139,-0.6222 v -2.522 z m 12.4197,5.58 c 0,0.462 -0.1219,0.826 -0.3679,1.0961 -0.2461,0.2699 -0.582,0.404 -1.008,0.404 -0.4261,0 -0.76,-0.1341 -1.004,-0.402 -0.2438,-0.2662 -0.366,-0.6341 -0.366,-1.0981 0,-0.4601 0.1222,-0.8241 0.3679,-1.0899 0.2461,-0.2659 0.5803,-0.398 1.0021,-0.398 0.426,0 0.7619,0.1321 1.008,0.398 0.246,0.2658 0.3679,0.6298 0.3679,1.0899 z m 1.838,2.952 v -5.9159 h -1.9199 v 0.9601 c -0.2738,-0.4102 -0.58,-0.7101 -0.9218,-0.902 -0.3422,-0.1902 -0.7441,-0.286 -1.2042,-0.286 -0.79,0 -1.4199,0.288 -1.8938,0.864 -0.472,0.576 -0.7081,1.3498 -0.7081,2.3179 0,0.966 0.248,1.7319 0.7421,2.302 0.4938,0.568 1.158,0.8518 1.9939,0.8518 0.4459,0 0.83,-0.0958 1.152,-0.2858 0.322,-0.1902 0.5978,-0.4821 0.828,-0.8781 v 0.972 z m 1.5741,-5.9159 v 5.9159 h 1.912 v -1.1999 c 0.276,0.4819 0.5961,0.8339 0.96,1.0579 0.362,0.2219 0.798,0.3339 1.304,0.3339 0.3841,0 0.724,-0.0618 1.0222,-0.184 0.2979,-0.1239 0.5419,-0.2999 0.7279,-0.5318 0.1579,-0.1981 0.2679,-0.4422 0.3339,-0.7262 0.0661,-0.2857 0.1001,-0.7118 0.1001,-1.2779 v -3.3879 h -2.088 v 3.17 c 0,0.4739 -0.078,0.816 -0.2322,1.032 -0.1539,0.2141 -0.3999,0.3221 -0.7398,0.3221 -0.434,0 -0.7501,-0.1602 -0.9499,-0.4802 -0.1982,-0.3201 -0.2982,-0.8399 -0.2982,-1.5599 v -2.484 z m 5.1001,8.604 c -0.1179,-0.506 -0.2801,-0.8762 -0.4862,-1.1121 -0.2058,-0.2341 -0.4719,-0.352 -0.7959,-0.352 -0.0899,0 -0.1721,0.004 -0.2441,0.0141 -0.072,0.01 -0.1397,0.0258 -0.2078,0.044 l -0.532,0.1539 -0.0182,0.006 c -0.2018,0.0541 -0.3299,0.0819 -0.3798,0.0819 -0.1301,0 -0.2361,-0.038 -0.3201,-0.114 -0.0839,-0.0759 -0.1519,-0.1978 -0.208,-0.3659 h -0.6959 c 0.11,0.5 0.2659,0.8679 0.4719,1.1061 0.2041,0.2378 0.4661,0.358 0.7861,0.358 0.0641,0 0.138,-0.008 0.2239,-0.0241 0.0859,-0.0139 0.186,-0.04 0.3042,-0.074 l 0.5559,-0.15 c 0.0479,-0.0201 0.098,-0.032 0.1519,-0.0399 0.0561,-0.008 0.1159,-0.0122 0.182,-0.0122 0.1241,0 0.2321,0.0402 0.32,0.1222 0.0859,0.0819 0.152,0.2018 0.1962,0.358 z m 7.2436,-5.6401 c 0,0.462 -0.1219,0.826 -0.3679,1.0961 -0.2461,0.2699 -0.582,0.404 -1.008,0.404 -0.4261,0 -0.76,-0.1341 -1.004,-0.402 -0.2438,-0.2662 -0.366,-0.6341 -0.366,-1.0981 0,-0.4601 0.1222,-0.8241 0.3679,-1.0899 0.2461,-0.2659 0.5803,-0.398 1.0021,-0.398 0.426,0 0.7619,0.1321 1.008,0.398 0.246,0.2658 0.3679,0.6298 0.3679,1.0899 z m 1.838,2.952 v -5.9159 h -1.9199 v 0.9601 c -0.2738,-0.4102 -0.58,-0.7101 -0.9218,-0.902 -0.3422,-0.1902 -0.7441,-0.286 -1.2042,-0.286 -0.79,0 -1.4198,0.288 -1.8938,0.864 -0.472,0.576 -0.7081,1.3498 -0.7081,2.3179 0,0.966 0.248,1.7319 0.7421,2.302 0.4938,0.568 1.158,0.8518 1.9939,0.8518 0.4459,0 0.83,-0.0958 1.152,-0.2858 0.322,-0.1902 0.5978,-0.4821 0.828,-0.8781 v 0.972 z m 11.344,-5.9159 h -6.554 l 3.852,4.5578 c 0.2341,0.2781 0.4059,0.5281 0.5182,0.754 0.11,0.2242 0.1658,0.434 0.1658,0.6282 0,0.3019 -0.0938,0.5459 -0.284,0.7358 -0.19,0.1902 -0.438,0.2841 -0.7458,0.2841 -0.3682,0 -0.65,-0.1179 -0.8462,-0.3521 -0.1978,-0.2338 -0.2959,-0.574 -0.2959,-1.0179 v -0.106 h -2.0639 v 0.0581 c 0,0.972 0.284,1.7379 0.8518,2.296 0.57,0.5579 1.3462,0.838 2.3301,0.838 0.9621,0 1.728,-0.2481 2.298,-0.7441 0.5701,-0.4961 0.8558,-1.156 0.8558,-1.98 0,-0.402 -0.0899,-0.792 -0.2699,-1.1739 -0.18,-0.3801 -0.4759,-0.7959 -0.892,-1.25 l -1.546,-1.7039 h 2.626 z m 4.9419,3.6119 v 2.4959 c 0,0.2302 0.004,0.4221 0.0142,0.576 0.01,0.1542 0.0258,0.286 0.0439,0.396 -0.074,-0.1678 -0.1562,-0.3359 -0.248,-0.504 -0.0921,-0.1678 -0.2041,-0.3558 -0.3379,-0.5618 l -1.5741,-2.4021 z m 0,-3.6119 v 1.9199 h -3.8999 v 1.692 l 3.1921,4.9201 h 2.6637 v -4.9201 h 0.9482 v -1.692 h -0.9482 v -1.9199 z m 6.3601,5.148 h 0.468 c 0.578,0 0.974,0.064 1.19,0.1899 0.214,0.1281 0.322,0.3481 0.322,0.6599 0,0.324 -0.1001,0.5502 -0.3022,0.682 -0.1998,0.1301 -0.5918,0.1962 -1.1738,0.1962 h -0.504 z m -2.1722,-5.148 v 8.5799 h 2.3542 c 0.9677,0 1.6438,-0.0321 2.0299,-0.0941 0.3841,-0.0618 0.714,-0.1698 0.9918,-0.3218 0.3161,-0.176 0.5582,-0.4121 0.7243,-0.7061 0.1658,-0.2959 0.2477,-0.6361 0.2477,-1.0239 0,-0.4881 -0.1239,-0.8761 -0.3719,-1.1641 -0.248,-0.2861 -0.644,-0.504 -1.188,-0.654 0.608,-0.0459 1.086,-0.2599 1.4281,-0.6401 0.3438,-0.3818 0.5159,-0.8898 0.5159,-1.5278 0,-0.4561 -0.0961,-0.8581 -0.29,-1.2062 -0.1919,-0.3478 -0.47,-0.6179 -0.828,-0.8078 -0.2919,-0.156 -0.6539,-0.2679 -1.082,-0.334 -0.43,-0.066 -1.1318,-0.1 -2.1078,-0.1 z m 2.1722,1.7521 h 0.8198 c 0.5542,0 0.9462,0.07 1.1761,0.2077 0.2299,0.1401 0.3441,0.3722 0.3441,0.6962 0,0.36 -0.106,0.61 -0.3161,0.754 -0.21,0.1421 -0.6001,0.2141 -1.1681,0.2141 h -0.8558 z M 185.5783,135.3628 h 2.1719 v -0.14 c 0,-0.3759 0.0879,-0.6599 0.2639,-0.8541 0.176,-0.1939 0.436,-0.29 0.7801,-0.29 0.36,0 0.6361,0.0922 0.828,0.2781 0.1919,0.186 0.288,0.4541 0.288,0.8059 0,0.394 -0.102,0.684 -0.3081,0.8702 -0.2038,0.186 -0.5258,0.2778 -0.9638,0.2778 -0.07,0 -0.1242,0 -0.1621,-0.002 -0.036,-0.002 -0.0701,-0.004 -0.1021,-0.004 v 1.3739 h 0.1222 c 0.394,0 0.6959,0.0862 0.9059,0.258 0.2101,0.1721 0.3161,0.4221 0.3161,0.752 0,0.2619 -0.0882,0.476 -0.2662,0.6401 -0.178,0.1641 -0.4059,0.246 -0.682,0.246 -0.2979,0 -0.5278,-0.0799 -0.6919,-0.242 -0.1642,-0.1599 -0.25,-0.3881 -0.258,-0.6821 h -2.0741 c 0.0162,0.802 0.2962,1.4242 0.8422,1.8661 0.544,0.4439 1.3079,0.6658 2.2898,0.6658 0.8762,0 1.5642,-0.1978 2.0662,-0.5938 0.5017,-0.396 0.7537,-0.934 0.7537,-1.6141 0,-0.4339 -0.1159,-0.8019 -0.3458,-1.1038 -0.2302,-0.3041 -0.5661,-0.5221 -1.008,-0.6602 0.534,-0.098 0.9499,-0.3299 1.2458,-0.6998 0.2962,-0.368 0.4442,-0.8402 0.4442,-1.414 0,-0.8322 -0.2959,-1.508 -0.8881,-2.0262 -0.5919,-0.5198 -1.364,-0.7798 -2.3159,-0.7798 -1.0001,0 -1.7921,0.2679 -2.376,0.8059 -0.5839,0.538 -0.8759,1.266 -0.8759,2.1841 v 0.0819 z m 10.8238,1.5001 c 0.402,0 0.72,0.118 0.9499,0.3518 0.2302,0.2342 0.3461,0.5542 0.3461,0.9601 0,0.4039 -0.1159,0.726 -0.3481,0.9621 -0.2338,0.2358 -0.5499,0.3537 -0.9479,0.3537 -0.398,0 -0.714,-0.1179 -0.9479,-0.3537 -0.2322,-0.2361 -0.3481,-0.5582 -0.3481,-0.9621 0,-0.4059 0.1159,-0.7259 0.3481,-0.9601 0.2339,-0.2338 0.5499,-0.3518 0.9479,-0.3518 z m 0.106,-1.37 c -0.1341,-0.0402 -0.2741,-0.072 -0.426,-0.0941 -0.15,-0.0241 -0.3081,-0.036 -0.472,-0.036 -0.7259,0 -1.328,0.254 -1.804,0.764 -0.4779,0.5099 -0.716,1.154 -0.716,1.936 0,0.9479 0.2959,1.7079 0.8901,2.278 0.5938,0.57 1.3898,0.854 2.3859,0.854 0.9961,0 1.7881,-0.282 2.374,-0.8441 0.5859,-0.5618 0.8779,-1.3178 0.8779,-2.266 0,-0.508 -0.1139,-1.044 -0.3399,-1.6078 -0.2262,-0.5641 -0.6241,-1.2802 -1.1939,-2.1462 l -1.19,-1.8119 h -2.3882 z m 7.3338,1.1299 c -0.398,0 -0.714,-0.1179 -0.9479,-0.354 -0.2321,-0.2381 -0.3481,-0.5599 -0.3481,-0.9661 0,-0.4019 0.116,-0.7219 0.3481,-0.9558 0.2339,-0.2341 0.5499,-0.3521 0.9479,-0.3521 0.398,0 0.7141,0.118 0.9482,0.3521 0.2319,0.2339 0.3478,0.5539 0.3478,0.9558 0,0.4062 -0.1159,0.728 -0.3478,0.9661 -0.2341,0.2361 -0.5502,0.354 -0.9482,0.354 z m -0.106,1.372 c 0.1381,0.042 0.2801,0.074 0.428,0.0961 0.148,0.0218 0.3062,0.032 0.47,0.032 0.726,0 1.3281,-0.2542 1.804,-0.7642 0.4782,-0.5099 0.716,-1.1579 0.716,-1.944 0,-0.9459 -0.2979,-1.7019 -0.894,-2.272 -0.5959,-0.5677 -1.3938,-0.8518 -2.3939,-0.8518 -0.9961,0 -1.7861,0.2818 -2.372,0.8439 -0.5859,0.5621 -0.8799,1.3181 -0.8799,2.268 0,0.4881 0.0978,0.9901 0.2959,1.5061 0.1959,0.5159 0.6101,1.2659 1.2379,2.2498 l 1.2002,1.8561 h 2.3899 z m 6.73,-5.476 v 6.552 h -1.838 l 1.0061,1.944 h 2.9678 v -8.496 z m 11.6158,4.142 c 0,-1.36 -0.288,-2.4279 -0.864,-3.204 -0.576,-0.7781 -1.368,-1.1659 -2.376,-1.1659 -1.008,0 -1.802,0.396 -2.3819,1.186 -0.58,0.792 -0.87,1.88 -0.87,3.2658 0,1.3822 0.29,2.4682 0.87,3.2562 0.5799,0.7897 1.3739,1.1837 2.3819,1.1837 1.0242,0 1.8202,-0.396 2.3879,-1.1857 0.5681,-0.792 0.8521,-1.902 0.8521,-3.3361 z m -4.3319,0.0819 c 0,-0.9379 0.0879,-1.6219 0.2619,-2.052 0.1741,-0.432 0.4502,-0.648 0.83,-0.648 0.3722,0 0.6441,0.216 0.8181,0.65 0.1741,0.434 0.2619,1.116 0.2619,2.05 0,0.9261 -0.0878,1.6062 -0.2619,2.0441 -0.174,0.438 -0.4459,0.6559 -0.8181,0.6559 -0.3838,0 -0.6619,-0.214 -0.8339,-0.642 -0.1721,-0.4258 -0.258,-1.114 -0.258,-2.058 z m 11.6107,-4.2239 v 8.5799 h 5.256 v -1.8839 h -2.9758 v -1.4879 h 2.8058 v -1.836 h -2.8058 v -1.4522 h 2.9758 v -1.9199 z m 6.7181,0 v 9.0839 h 2.088 v -9.0839 z m 11.9608,3.204 h 2.3261 l -0.8739,2.8318 c -0.0261,0.0862 -0.064,0.2243 -0.11,0.4162 -0.0482,0.1919 -0.108,0.4379 -0.1822,0.7381 -0.0499,-0.21 -0.0998,-0.4121 -0.15,-0.604 -0.0479,-0.1903 -0.0978,-0.3742 -0.148,-0.5503 z m -3.278,-3.204 2.9623,8.5799 h 2.9298 l 2.9639,-8.5799 h -2.3258 l -0.434,1.5361 h -3.3222 l -0.4459,-1.5361 z m 8.9779,0.4921 0.434,1.5959 c 0.3062,-0.2659 0.6401,-0.4699 1.006,-0.6139 0.366,-0.1421 0.7339,-0.2141 1.1041,-0.2141 0.262,0 0.4618,0.042 0.5979,0.1259 0.138,0.0842 0.206,0.2061 0.206,0.3662 0,0.262 -0.2761,0.4578 -0.828,0.5879 -0.18,0.042 -0.3259,0.08 -0.4339,0.11 -0.6259,0.1721 -1.0781,0.398 -1.3621,0.6781 -0.282,0.278 -0.4241,0.642 -0.4241,1.0859 0,0.576 0.216,1.0341 0.648,1.3779 0.432,0.3442 1.016,0.5159 1.7541,0.5159 0.3801,0 0.7659,-0.0439 1.158,-0.1318 0.392,-0.0881 0.794,-0.2239 1.2041,-0.4079 l -0.4342,-1.44 c -0.2758,0.188 -0.5579,0.332 -0.8439,0.4298 -0.286,0.098 -0.5701,0.1462 -0.8561,0.1462 -0.2378,0 -0.4178,-0.0382 -0.54,-0.1122 -0.1219,-0.074 -0.182,-0.182 -0.182,-0.322 0,-0.2098 0.2742,-0.3878 0.8221,-0.5338 0.1261,-0.034 0.22,-0.0601 0.282,-0.076 0.722,-0.206 1.224,-0.4501 1.5081,-0.7282 0.282,-0.2798 0.424,-0.6579 0.424,-1.1338 0,-0.6041 -0.2321,-1.0939 -0.6981,-1.4661 -0.4641,-0.3739 -1.08,-0.5599 -1.844,-0.5599 -0.5199,0 -1.002,0.0598 -1.4479,0.178 -0.4462,0.12 -0.864,0.3 -1.2541,0.542 z m 6.6819,-0.4921 v 4.4399 h -0.8878 v 1.476 h 0.8878 v 1.764 h 2.052 v -1.764 h 0.8881 v -1.476 h -0.8881 v -4.4399 z m 3.8642,7.7638 c 0,0.3161 0.1119,0.5843 0.3378,0.8062 0.2243,0.222 0.4941,0.3339 0.8122,0.3339 0.3279,0 0.602,-0.1099 0.822,-0.3279 0.222,-0.218 0.332,-0.4882 0.332,-0.8122 0,-0.324 -0.112,-0.5978 -0.3379,-0.8237 -0.2243,-0.2262 -0.4961,-0.3402 -0.8161,-0.3402 -0.3141,0 -0.584,0.116 -0.8102,0.3462 -0.2259,0.2298 -0.3398,0.502 -0.3398,0.8177 z m 0.108,-7.7638 v 5.9159 h 2.088 v -5.9159 z m 3.744,0 v 9.0839 h 2.088 v -9.0839 z m 3.744,0 v 9.0839 h 2.088 v -9.0839 z m 7.764,3.7199 c -0.0402,0.3362 -0.168,0.6061 -0.384,0.8102 -0.218,0.2038 -0.4842,0.3058 -0.802,0.3058 -0.3401,0 -0.612,-0.0918 -0.8141,-0.278 -0.2001,-0.186 -0.3339,-0.4658 -0.4019,-0.838 z m 2.0518,-1.1758 h -4.4998 c 0.004,-0.4561 0.1219,-0.8081 0.3518,-1.0562 0.2322,-0.248 0.5582,-0.3719 0.9802,-0.3719 0.3178,0 0.584,0.0601 0.802,0.1781 0.216,0.1199 0.3818,0.2959 0.496,0.53 l 1.5699,-0.6321 c -0.188,-0.4541 -0.5199,-0.8039 -0.9959,-1.0499 -0.4782,-0.2461 -1.0621,-0.37 -1.754,-0.37 -1.0321,0 -1.8601,0.286 -2.482,0.8578 -0.624,0.574 -0.936,1.328 -0.936,2.266 0,0.9221 0.312,1.688 0.934,2.2981 0.6239,0.61 1.4119,0.9138 2.3641,0.9138 0.9799,0 1.7538,-0.3078 2.3198,-0.9257 0.5661,-0.618 0.8499,-1.4641 0.8499,-2.5382 z m 1.2101,-2.5441 v 5.9159 h 1.9698 v -1.394 c 0.2041,0.5102 0.4802,0.89 0.8319,1.144 0.3521,0.254 0.7781,0.3821 1.2782,0.3821 0.0819,0 0.1658,-0.002 0.25,-0.008 0.0839,-0.006 0.1678,-0.0162 0.254,-0.0281 l -0.2041,-1.8961 c -0.1239,0.042 -0.248,0.072 -0.368,0.0922 -0.1218,0.0178 -0.2381,0.028 -0.352,0.028 -0.506,0 -0.896,-0.1562 -1.1719,-0.466 -0.2741,-0.3101 -0.4121,-0.75 -0.4121,-1.3201 v -2.45 h -2.0758 z m 9.5499,2.9441 c 0,0.4399 -0.112,0.788 -0.3339,1.042 -0.2223,0.254 -0.5242,0.3818 -0.902,0.3818 -0.3821,0 -0.684,-0.1278 -0.9062,-0.3818 -0.22,-0.254 -0.33,-0.6021 -0.33,-1.042 0,-0.4422 0.11,-0.79 0.328,-1.042 0.218,-0.252 0.5221,-0.3782 0.9082,-0.3782 0.3818,0 0.684,0.1262 0.9059,0.3782 0.22,0.252 0.33,0.5998 0.33,1.042 z m 2.0758,0 c 0,-0.426 -0.0839,-0.832 -0.2497,-1.2141 -0.1661,-0.3841 -0.4062,-0.7279 -0.7243,-1.0321 -0.3197,-0.3038 -0.6777,-0.536 -1.0737,-0.6919 -0.398,-0.1559 -0.8181,-0.2339 -1.264,-0.2339 -0.4541,0 -0.8782,0.078 -1.2742,0.2339 -0.398,0.1559 -0.752,0.3881 -1.0638,0.6919 -0.3141,0.2982 -0.5522,0.6381 -0.7161,1.0222 -0.1641,0.3858 -0.246,0.794 -0.246,1.224 0,0.432 0.0819,0.8399 0.2441,1.224 0.1618,0.3818 0.3999,0.726 0.718,1.0318 0.3078,0.3002 0.6599,0.5281 1.0579,0.68 0.396,0.152 0.822,0.2279 1.2801,0.2279 0.4578,0 0.8838,-0.0759 1.2778,-0.2279 0.3941,-0.1519 0.7481,-0.3798 1.0599,-0.68 0.322,-0.3098 0.5641,-0.6559 0.7282,-1.038 0.1639,-0.3819 0.2458,-0.7898 0.2458,-1.2178" />
      <path
         inkscape:connector-curvature="0"
         id="path45"
         style="fill:#80ce4b;fill-opacity:1;fill-rule:nonzero;stroke:none"
         d="m 321.73,140.5412 v 8.5799 h 5.256 v -1.8839 h -2.9758 v -1.4879 h 2.8057 v -1.836 h -2.8057 v -3.3721 z m 12.456,5.9159 v -3.0201 c 0,-0.6678 -0.0541,-1.1639 -0.1621,-1.4859 -0.106,-0.322 -0.288,-0.608 -0.542,-0.858 -0.2619,-0.262 -0.5879,-0.4578 -0.978,-0.586 -0.392,-0.1301 -0.8498,-0.1938 -1.3779,-0.1938 -0.5241,0 -0.9799,0.0637 -1.368,0.1938 -0.39,0.1282 -0.72,0.324 -0.9941,0.586 -0.254,0.242 -0.434,0.5261 -0.54,0.8521 -0.106,0.3259 -0.1579,0.824 -0.1579,1.4918 v 3.0201 h 1.9919 v -3.1558 c 0,-0.4941 0.0822,-0.8521 0.2461,-1.0741 0.1641,-0.22 0.43,-0.3299 0.7979,-0.3299 0.3722,0 0.6381,0.108 0.8,0.324 0.1621,0.2179 0.244,0.5779 0.244,1.08 v 3.1558 z m 1.8218,-5.9159 v 4.4399 H 335.12 v 1.476 h 0.8878 v 1.764 h 2.052 v -1.764 h 0.8881 v -1.476 h -0.8881 v -4.4399 z m 9.9842,5.9159 v -3.0201 c 0,-0.6678 -0.0541,-1.1639 -0.1621,-1.4859 -0.106,-0.322 -0.288,-0.608 -0.542,-0.858 -0.2619,-0.262 -0.5879,-0.4578 -0.9779,-0.586 -0.3921,-0.1301 -0.8499,-0.1938 -1.378,-0.1938 -0.5241,0 -0.9799,0.0637 -1.368,0.1938 -0.39,0.1282 -0.72,0.324 -0.9941,0.586 -0.254,0.242 -0.434,0.5261 -0.54,0.8521 -0.106,0.3259 -0.1579,0.824 -0.1579,1.4918 v 3.0201 h 1.9919 v -3.1558 c 0,-0.4941 0.0822,-0.8521 0.2461,-1.0741 0.1641,-0.22 0.43,-0.3299 0.7979,-0.3299 0.3722,0 0.6381,0.108 0.8,0.324 0.1621,0.2179 0.244,0.5779 0.244,1.08 v 3.1558 z m 1.51,-5.9159 v 5.9159 h 1.9698 v -1.3941 c 0.2041,0.5102 0.4802,0.8901 0.832,1.1441 0.3521,0.2539 0.7781,0.3821 1.2782,0.3821 0.0819,0 0.1658,-0.002 0.25,-0.008 0.0839,-0.006 0.1678,-0.0161 0.254,-0.028 l -0.2041,-1.8961 c -0.1239,0.0419 -0.2481,0.072 -0.368,0.0921 -0.1219,0.0179 -0.2381,0.0281 -0.352,0.0281 -0.506,0 -0.8961,-0.1562 -1.1719,-0.4661 -0.2741,-0.3101 -0.4121,-0.75 -0.4121,-1.3201 v -2.4499 z m 9.8598,2.9639 c 0,0.462 -0.1219,0.826 -0.3679,1.0961 -0.2461,0.2699 -0.582,0.404 -1.008,0.404 -0.4261,0 -0.76,-0.1341 -1.0041,-0.402 -0.2438,-0.2662 -0.3659,-0.6341 -0.3659,-1.0981 0,-0.4601 0.1221,-0.8241 0.3679,-1.09 0.2461,-0.2658 0.5803,-0.3979 1.0021,-0.3979 0.426,0 0.7619,0.1321 1.008,0.3979 0.246,0.2659 0.3679,0.6299 0.3679,1.09 z m 1.838,2.952 v -5.9159 h -1.9199 v 0.9601 c -0.2739,-0.4102 -0.58,-0.7101 -0.9219,-0.902 -0.3421,-0.1902 -0.744,-0.286 -1.2041,-0.286 -0.79,0 -1.4199,0.288 -1.8938,0.864 -0.472,0.576 -0.7081,1.3498 -0.7081,2.3178 0,0.9661 0.248,1.732 0.7421,2.3021 0.4938,0.568 1.1579,0.8518 1.9939,0.8518 0.4459,0 0.83,-0.0958 1.152,-0.2858 0.322,-0.1902 0.5978,-0.4821 0.828,-0.8781 v 0.972 z m 15.3139,-5.9159 h -2.1858 l -0.502,3.7099 c -0.036,0.262 -0.0681,0.552 -0.0981,0.874 -0.0281,0.32 -0.0559,0.6701 -0.078,1.0479 -0.0561,-0.3639 -0.1621,-0.8158 -0.322,-1.3597 -0.036,-0.1123 -0.0621,-0.1962 -0.0779,-0.252 l -1.1642,-4.0201 h -1.5599 l -1.1639,4.0201 c -0.0162,0.0558 -0.04,0.1397 -0.072,0.252 -0.1642,0.5439 -0.2702,0.9938 -0.3221,1.3538 -0.0221,-0.324 -0.0498,-0.646 -0.0819,-0.9641 -0.03,-0.3177 -0.068,-0.6358 -0.11,-0.9519 l -0.504,-3.7099 h -2.1741 l 1.324,8.5799 h 2.3139 l 1.2941,-4.4241 c 0.008,-0.032 0.0241,-0.0819 0.0482,-0.1539 0.1199,-0.394 0.1958,-0.7319 0.2279,-1.0139 0.0158,0.1539 0.0439,0.322 0.0878,0.5079 0.042,0.186 0.1021,0.4099 0.1761,0.6721 l 1.3059,4.4119 h 2.3201 z m 5.6341,2.952 c 0,0.46 -0.1222,0.824 -0.3659,1.0899 -0.2421,0.2662 -0.576,0.398 -0.9961,0.398 -0.4221,0 -0.7541,-0.1318 -0.9961,-0.398 -0.2418,-0.2659 -0.362,-0.6299 -0.362,-1.0899 0,-0.4641 0.1202,-0.828 0.36,-1.0919 0.2401,-0.2642 0.572,-0.396 0.9981,-0.396 0.4201,0 0.754,0.1318 0.9961,0.3979 0.2437,0.2659 0.3659,0.6299 0.3659,1.09 z m 1.8519,6.1319 v -9.0839 h -1.9219 v 0.9601 c -0.2662,-0.398 -0.5641,-0.6962 -0.896,-0.8921 -0.332,-0.1981 -0.6999,-0.2959 -1.1061,-0.2959 -0.832,0 -1.4939,0.288 -1.986,0.862 -0.4921,0.574 -0.7378,1.3478 -0.7378,2.3198 0,0.942 0.2457,1.704 0.7358,2.2839 0.4902,0.58 1.128,0.87 1.916,0.87 0.5,0 0.9079,-0.0899 1.222,-0.2699 0.3141,-0.18 0.5941,-0.4819 0.8399,-0.904 -0.0238,0.1401 -0.04,0.3 -0.0519,0.478 -0.0119,0.178 -0.0178,0.3722 -0.0178,0.578 v 3.094 z m 7.6221,-3.9359 h 0.468 c 0.5779,0 0.9739,0.064 1.1899,0.1899 0.2141,0.1281 0.3221,0.3481 0.3221,0.6599 0,0.324 -0.1001,0.5502 -0.3022,0.682 -0.1999,0.1301 -0.5919,0.1962 -1.1738,0.1962 h -0.504 z m -2.1722,-5.148 v 8.5799 h 2.3541 c 0.9678,0 1.6439,-0.0321 2.0299,-0.0941 0.3841,-0.0618 0.7141,-0.1698 0.9919,-0.3218 0.316,-0.176 0.5581,-0.4121 0.7242,-0.7061 0.1659,-0.2959 0.2478,-0.6361 0.2478,-1.0239 0,-0.4881 -0.1239,-0.8761 -0.3719,-1.1641 -0.2481,-0.2861 -0.6441,-0.504 -1.188,-0.654 0.608,-0.0459 1.0859,-0.2599 1.4281,-0.6401 0.3438,-0.3818 0.5159,-0.8898 0.5159,-1.5278 0,-0.4561 -0.0961,-0.8581 -0.29,-1.2062 -0.1919,-0.3478 -0.47,-0.6179 -0.828,-0.8079 -0.292,-0.1559 -0.654,-0.2678 -1.082,-0.3339 -0.43,-0.066 -1.1319,-0.1 -2.1078,-0.1 z m 2.1722,1.7521 h 0.8197 c 0.5542,0 0.9462,0.07 1.1761,0.2077 0.2299,0.1401 0.3442,0.3722 0.3442,0.6962 0,0.36 -0.1061,0.61 -0.3161,0.754 -0.21,0.1421 -0.6001,0.2141 -1.1682,0.2141 h -0.8557 z m 6.1458,-1.7521 v 4.4399 h -0.8879 v 1.476 h 0.8879 v 1.764 h 2.052 v -1.764 h 0.8881 v -1.476 h -0.8881 v -4.4399 z" />
      <path
         inkscape:connector-curvature="0"
         id="path47"
         style="fill:none;stroke:#231f20;stroke-width:0.21600001;stroke-linecap:butt;stroke-linejoin:miter;stroke-miterlimit:22.92558479;stroke-dasharray:none;stroke-opacity:1"
         d="M 214.0157,758.3834 H 381.2598 V 506.0999 H 214.0157 Z" />
      <path
         inkscape:connector-curvature="0"
         id="path49"
         style="fill:#80ce4b;fill-opacity:1;fill-rule:evenodd;stroke:none"
         d="M 214.0157,555.9454 H 381.2598 V 506.0999 H 214.0157 Z" />
      <path
         inkscape:connector-curvature="0"
         id="path51"
         style="fill:#80ce4b;fill-opacity:1;fill-rule:evenodd;stroke:none"
         d="m 344.9894,737.026 c 4.8563,0 8.7934,-3.937 8.7934,-8.7931 0,-4.8563 -3.9371,-8.7933 -8.7934,-8.7933 -4.8563,0 -8.7931,3.937 -8.7931,8.7933 0,4.8561 3.9368,8.7931 8.7931,8.7931" />
      <path
         inkscape:connector-curvature="0"
         id="path53"
         style="fill:#7b7979;fill-opacity:1;fill-rule:nonzero;stroke:none"
         d="m 245.1861,663.8641 -0.5307,0.9961 c 0.6254,0.184 1.1115,0.504 1.4556,0.9575 0.3467,0.4567 0.5188,1.0021 0.5188,1.6396 0,0.8033 -0.2373,1.4318 -0.7115,1.8825 -0.4774,0.4535 -1.1325,0.6789 -1.9744,0.6789 -0.6137,0 -1.1236,-0.1514 -1.5298,-0.4567 -0.4059,-0.3024 -0.8745,-0.9575 -1.408,-1.9565 -0.6761,-1.2806 -1.2719,-2.1316 -1.7878,-2.5554 -0.5156,-0.4241 -1.1353,-0.6344 -1.8587,-0.6344 -0.9042,0 -1.6393,0.3053 -2.2056,0.9159 -0.5661,0.6109 -0.8507,1.4023 -0.8507,2.3746 0,0.6344 0.1332,1.1888 0.4031,1.6602 0.2699,0.4714 0.6729,0.8538 1.2095,1.1503 l 0.5395,-0.8895 c -0.3646,-0.1837 -0.6432,-0.4476 -0.8328,-0.7855 -0.1928,-0.3381 -0.2878,-0.7381 -0.2878,-1.2036 0,-0.6256 0.184,-1.1205 0.5514,-1.4913 0.3676,-0.3705 0.8657,-0.5573 1.4913,-0.5573 0.8892,0 1.7223,0.7354 2.4931,2.2057 0.1363,0.2667 0.246,0.4683 0.3203,0.6077 0.5958,1.082 1.1591,1.8054 1.6897,2.17 0.5306,0.3648 1.2183,0.5485 2.0633,0.5485 1.1413,0 2.0455,-0.332 2.7153,-0.999 0.667,-0.667 1.0021,-1.5743 1.0021,-2.7215 0,-0.8331 -0.2075,-1.5475 -0.6197,-2.1405 -0.415,-0.5958 -1.0343,-1.0613 -1.8555,-1.3963 z m -1.8082,17.9918 c 0.9961,0 1.7637,0.2253 2.3003,0.6729 0.5397,0.4476 0.8093,1.0911 0.8093,1.9239 0,0.8093 -0.2934,1.4496 -0.8805,1.9151 -0.5899,0.4654 -1.3992,0.6996 -2.4279,0.6996 -0.9456,0 -1.6868,-0.2311 -2.2294,-0.6965 -0.5423,-0.4626 -0.8121,-1.097 -0.8121,-1.9003 0,-0.8065 0.2874,-1.4409 0.8657,-1.9123 0.5751,-0.4683 1.3666,-0.7024 2.3746,-0.7024 z m 3.7678,5.1939 h -1.4052 c 0.5661,-0.2551 0.999,-0.6137 1.2955,-1.0732 0.2993,-0.4595 0.4476,-1.002 0.4476,-1.6277 0,-1.1086 -0.3793,-1.9981 -1.1384,-2.6739 -0.756,-0.6729 -1.7578,-1.0108 -3.0031,-1.0108 -1.2302,0 -2.2382,0.3319 -3.0149,0.9989 -0.7795,0.667 -1.1679,1.5268 -1.1679,2.5793 0,0.655 0.1423,1.2211 0.4298,1.6985 0.2846,0.4802 0.7055,0.8478 1.26,1.1089 h -1.4052 v 1.0672 h 7.7018 z m 0.1777,14.7005 v -1.1027 h -13.4648 v 1.1027 z m -7.7017,14.114 h 3.8477 c 1.1682,0 1.9953,0.1661 2.4755,0.498 0.4802,0.3351 0.7203,0.8983 0.7203,1.6897 0,0.7886 -0.2429,1.3519 -0.7291,1.6929 -0.4864,0.3407 -1.3104,0.5128 -2.4667,0.5128 h -3.8477 v 1.0672 h 4.3934 c 1.1976,0 2.1047,-0.2758 2.7212,-0.8271 0.6169,-0.5485 0.925,-1.3578 0.925,-2.4251 0,-1.0701 -0.3081,-1.8853 -0.925,-2.4426 -0.6165,-0.5544 -1.5236,-0.8331 -2.7212,-0.8331 h -4.3934 z m 3.9339,16.1206 c 0.9961,0 1.7637,0.2253 2.3003,0.6729 0.5397,0.4479 0.8093,1.0911 0.8093,1.9242 0,0.8033 -0.2934,1.4377 -0.8804,1.9 -0.5899,0.4655 -1.3992,0.6968 -2.4279,0.6968 -0.9457,0 -1.6869,-0.2282 -2.2295,-0.6877 -0.5422,-0.4566 -0.8121,-1.0879 -0.8121,-1.8915 0,-0.8062 0.2874,-1.4437 0.8657,-1.912 0.5752,-0.4683 1.3666,-0.7027 2.3746,-0.7027 z m 3.7678,5.176 h -1.4051 c 0.572,-0.2548 1.0048,-0.6105 1.3014,-1.0672 0.2933,-0.4595 0.4416,-0.9961 0.4416,-1.6186 0,-1.1058 -0.3793,-1.995 -1.1384,-2.6711 -0.756,-0.6729 -1.7578,-1.0108 -3.003,-1.0108 -1.2303,0 -2.2383,0.3322 -3.015,0.9992 -0.7795,0.667 -1.1678,1.5267 -1.1678,2.579 0,0.6551 0.1423,1.2186 0.4297,1.6897 0.2846,0.4714 0.7055,0.8391 1.26,1.0998 h -7.1682 v 1.0851 h 13.4648 z" />
      <path
         inkscape:connector-curvature="0"
         id="path55"
         style="fill:#80ce4b;fill-opacity:1;fill-rule:evenodd;stroke:none"
         d="m 253.3337,738.5409 h 3.1856 13.1201 c 29.6096,0 34.8855,-25.1717 71.4164,-26.9108 7.2706,-0.3461 14.1772,1.1988 20.3615,3.3393 V 662.4037 H 253.3337 Z" />
      <path
         inkscape:connector-curvature="0"
         id="path57"
         style="fill:#7b7979;fill-opacity:1;fill-rule:nonzero;stroke:none"
         d="m 253.3337,676.6591 h 4.881 c 1.0993,0 1.9369,-0.0901 2.516,-0.2727 0.7759,-0.2455 1.4409,-0.6834 1.9922,-1.3141 0.5545,-0.627 0.9762,-1.3975 1.2657,-2.3066 0.2863,-0.9127 0.4311,-2.0344 0.4311,-3.3721 0,-1.1718 -0.1355,-2.1841 -0.4065,-3.0336 -0.3296,-1.0355 -0.8008,-1.8751 -1.4167,-2.5157 -0.4618,-0.4879 -1.0868,-0.8663 -1.8749,-1.1384 -0.5887,-0.2024 -1.3767,-0.3022 -2.3652,-0.3022 h -5.0227 z m 2.67,-2.4131 v -9.4394 h 1.9921 c 0.7456,0 1.2841,0.0434 1.6169,0.1364 0.4312,0.1162 0.7915,0.3118 1.078,0.5904 0.2863,0.2789 0.5171,0.7401 0.6988,1.3774 0.1788,0.6372 0.271,1.5103 0.271,2.6121 0,1.1018 -0.0922,1.9451 -0.271,2.5356 -0.1817,0.591 -0.4346,1.0525 -0.7574,1.381 -0.3266,0.332 -0.7387,0.5542 -1.2382,0.6704 -0.3725,0.093 -1.1018,0.1361 -2.1926,0.1361 z" />
      <path
         inkscape:connector-curvature="0"
         id="path59"
         style="fill:#7b7979;fill-opacity:1;fill-rule:nonzero;stroke:none"
         d="m 267.2408,662.4037 v 14.2554 h 9.8041 v -2.4131 h -7.1345 v -3.1595 h 6.639 v -2.3998 h -6.639 v -3.8801 h 7.3874 v -2.4029 z" />
      <path
         inkscape:connector-curvature="0"
         id="path61"
         style="fill:#7b7979;fill-opacity:1;fill-rule:nonzero;stroke:none"
         d="m 280.3127,662.4037 v 14.2554 h 2.5985 l 5.4137,-9.519 v 9.519 h 2.482 v -14.2554 h -2.6822 l -5.3302,9.2968 v -9.2968 z" />
      <path
         inkscape:connector-curvature="0"
         id="path63"
         style="fill:#7b7979;fill-opacity:1;fill-rule:nonzero;stroke:none"
         d="m 297.1885,662.4037 v 11.8423 h -3.9231 v 2.4131 h 10.5097 v -2.4131 h -3.9135 v -11.8423 z" />
      <path
         inkscape:connector-curvature="0"
         id="path65"
         style="fill:#7b7979;fill-opacity:1;fill-rule:nonzero;stroke:none"
         d="m 316.9233,662.4037 h -2.9069 l -1.1546,3.2394 h -5.2872 l -1.0899,-3.2394 h -2.8332 l 5.1517,14.2554 h 2.8239 z m -4.9175,5.6392 -1.823,5.2903 -1.7861,-5.2903 z" />
      <path
         inkscape:connector-curvature="0"
         id="path67"
         style="fill:#7b7979;fill-opacity:1;fill-rule:nonzero;stroke:none"
         d="m 319.3846,662.4037 v 14.1392 h 2.67 v -11.7363 h 6.639 v -2.4029 z" />
      <path
         inkscape:connector-curvature="0"
         id="path69"
         style="fill:#ffffff;fill-opacity:1;fill-rule:nonzero;stroke:none"
         d="m 246.1445,543.7704 h 2.3261 l -0.8739,2.8318 c -0.0261,0.0861 -0.0641,0.2242 -0.11,0.4161 -0.0482,0.1919 -0.108,0.438 -0.1823,0.7381 -0.0499,-0.21 -0.0998,-0.4121 -0.1499,-0.604 -0.0479,-0.1902 -0.0978,-0.3742 -0.148,-0.5502 z m -3.278,-3.204 2.9622,8.5799 h 2.9299 l 2.9639,-8.5799 h -2.3258 l -0.434,1.5361 h -3.3222 l -0.4459,-1.5361 z m 11.3159,0 -2.662,5.9159 h 2.228 l 1.008,-2.6119 c 0.0119,-0.028 0.0238,-0.0601 0.04,-0.1 0.1301,-0.3442 0.21,-0.618 0.2401,-0.8261 0.0278,0.192 0.1037,0.4479 0.2299,0.768 0.026,0.07 0.0459,0.1221 0.0581,0.1581 l 1.008,2.6119 h 2.1719 l -2.6881,-5.9159 z m 9.502,2.952 c 0,0.46 -0.1222,0.824 -0.3659,1.0899 -0.2421,0.2662 -0.576,0.398 -0.9961,0.398 -0.4221,0 -0.7541,-0.1318 -0.9961,-0.398 -0.2418,-0.2659 -0.362,-0.6299 -0.362,-1.0899 0,-0.4641 0.1202,-0.828 0.36,-1.0919 0.2401,-0.2642 0.572,-0.396 0.9981,-0.396 0.4201,0 0.754,0.1318 0.9961,0.3979 0.2437,0.2659 0.3659,0.6299 0.3659,1.09 z m 1.8519,6.1319 v -9.0839 h -1.9219 v 0.9601 c -0.2662,-0.398 -0.5641,-0.6962 -0.896,-0.8921 -0.332,-0.1981 -0.6999,-0.2959 -1.1061,-0.2959 -0.832,0 -1.4939,0.288 -1.986,0.862 -0.4921,0.574 -0.7378,1.3478 -0.7378,2.3198 0,0.942 0.2457,1.704 0.7358,2.2839 0.4902,0.58 1.128,0.87 1.916,0.87 0.5,0 0.9079,-0.0899 1.222,-0.2699 0.3141,-0.18 0.5941,-0.4819 0.8399,-0.904 -0.0238,0.1401 -0.04,0.3 -0.0519,0.478 -0.0119,0.178 -0.0178,0.3722 -0.0178,0.578 v 3.094 z m 6.0599,-6.12 c 0,0.462 -0.1219,0.826 -0.3679,1.0961 -0.2461,0.2699 -0.582,0.404 -1.008,0.404 -0.4261,0 -0.76,-0.1341 -1.0041,-0.402 -0.2438,-0.2662 -0.3659,-0.6341 -0.3659,-1.0981 0,-0.4601 0.1221,-0.8241 0.3679,-1.09 0.2461,-0.2658 0.5803,-0.3979 1.0021,-0.3979 0.426,0 0.7619,0.1321 1.008,0.3979 0.246,0.2659 0.3679,0.6299 0.3679,1.09 z m 1.838,2.952 v -5.9159 h -1.9199 v 0.9601 c -0.2739,-0.4102 -0.58,-0.7101 -0.9219,-0.902 -0.3421,-0.1902 -0.7441,-0.286 -1.2041,-0.286 -0.79,0 -1.4199,0.288 -1.8938,0.864 -0.472,0.576 -0.7081,1.3498 -0.7081,2.3178 0,0.9661 0.248,1.732 0.7421,2.3021 0.4938,0.568 1.1579,0.8518 1.9939,0.8518 0.4459,0 0.8299,-0.0958 1.152,-0.2858 0.322,-0.1902 0.5978,-0.4821 0.828,-0.8781 v 0.972 z m 1.5021,-4.9558 c 0,0.3319 0.1119,0.61 0.3381,0.8359 0.224,0.2259 0.502,0.3399 0.836,0.3399 0.3398,0 0.6219,-0.114 0.8498,-0.3399 0.2262,-0.2259 0.3401,-0.504 0.3401,-0.8359 0,-0.3323 -0.1139,-0.612 -0.3441,-0.8422 -0.2279,-0.2299 -0.5099,-0.3458 -0.8458,-0.3458 -0.33,0 -0.6061,0.1159 -0.834,0.3458 -0.2262,0.2302 -0.3401,0.5099 -0.3401,0.8422 z m 7.7159,-0.9601 v 8.5799 h 5.256 v -1.8839 h -2.9759 v -1.4879 h 2.8058 v -1.836 h -2.8058 v -1.4522 h 2.9759 v -1.9199 z m 6.1061,0.4921 0.434,1.5959 c 0.3061,-0.2659 0.64,-0.47 1.006,-0.614 0.3659,-0.142 0.7339,-0.214 1.1041,-0.214 0.2619,0 0.4617,0.0419 0.5978,0.1258 0.138,0.0842 0.2061,0.2061 0.2061,0.3663 0,0.2619 -0.2761,0.4578 -0.828,0.5879 -0.18,0.0419 -0.326,0.0799 -0.434,0.1099 -0.6259,0.1721 -1.078,0.398 -1.3621,0.6781 -0.282,0.2781 -0.424,0.642 -0.424,1.0859 0,0.576 0.216,1.0341 0.648,1.378 0.432,0.3441 1.0159,0.5159 1.7541,0.5159 0.3801,0 0.7659,-0.044 1.1579,-0.1318 0.392,-0.0882 0.794,-0.224 1.2042,-0.4079 l -0.4343,-1.44 c -0.2758,0.1879 -0.5579,0.3319 -0.8439,0.4297 -0.286,0.0981 -0.57,0.1463 -0.856,0.1463 -0.2379,0 -0.4179,-0.0383 -0.54,-0.1123 -0.1219,-0.074 -0.182,-0.182 -0.182,-0.322 0,-0.2098 0.2741,-0.3878 0.822,-0.5338 0.1262,-0.034 0.22,-0.0601 0.2821,-0.0759 0.722,-0.2061 1.224,-0.4502 1.508,-0.7283 0.282,-0.2797 0.4241,-0.6579 0.4241,-1.1338 0,-0.6041 -0.2322,-1.0939 -0.6982,-1.4661 -0.464,-0.3739 -1.08,-0.5598 -1.8439,-0.5598 -0.5199,0 -1.0021,0.0598 -1.448,0.178 -0.4462,0.1199 -0.864,0.2999 -1.254,0.542 z m 8.2219,2.448 c 0,-0.4601 0.1199,-0.8241 0.36,-1.0902 0.2401,-0.2659 0.572,-0.398 0.9941,-0.398 0.4218,0 0.756,0.1321 0.9997,0.398 0.2441,0.2661 0.3663,0.6301 0.3663,1.0902 0,0.4597 -0.1222,0.8237 -0.3643,1.0899 -0.2418,0.2659 -0.576,0.398 -1.0017,0.398 -0.4221,0 -0.754,-0.1321 -0.9941,-0.398 -0.2401,-0.2662 -0.36,-0.6302 -0.36,-1.0899 z m -1.8519,-5.5562 v 8.532 h 1.9219 v -0.9958 c 0.2659,0.3999 0.5641,0.6978 0.896,0.8937 0.3319,0.1962 0.6999,0.294 1.1061,0.294 0.832,0 1.4938,-0.2838 1.9859,-0.8518 0.4918,-0.5701 0.7379,-1.34 0.7379,-2.312 0,-0.9462 -0.2441,-1.7121 -0.7339,-2.296 -0.4901,-0.584 -1.1302,-0.8759 -1.9179,-0.8759 -0.5,0 -0.9082,0.0918 -1.222,0.2758 -0.3141,0.182 -0.5942,0.4841 -0.8402,0.9059 0.0201,-0.1159 0.034,-0.2599 0.0442,-0.4257 0.01,-0.1681 0.0139,-0.3762 0.0139,-0.6222 v -2.522 z m 12.4197,5.58 c 0,0.462 -0.1219,0.826 -0.3679,1.0961 -0.2461,0.2699 -0.582,0.404 -1.008,0.404 -0.4261,0 -0.76,-0.1341 -1.0041,-0.402 -0.2437,-0.2662 -0.3659,-0.6341 -0.3659,-1.0981 0,-0.4601 0.1222,-0.8241 0.3679,-1.09 0.2461,-0.2658 0.5803,-0.3979 1.0021,-0.3979 0.426,0 0.7619,0.1321 1.008,0.3979 0.246,0.2659 0.3679,0.6299 0.3679,1.09 z m 1.838,2.952 v -5.9159 h -1.9199 v 0.9601 c -0.2738,-0.4102 -0.58,-0.7101 -0.9218,-0.902 -0.3422,-0.1902 -0.7441,-0.286 -1.2042,-0.286 -0.79,0 -1.4199,0.288 -1.8938,0.864 -0.472,0.576 -0.7081,1.3498 -0.7081,2.3178 0,0.9661 0.248,1.732 0.7421,2.3021 0.4938,0.568 1.1579,0.8518 1.9939,0.8518 0.4459,0 0.83,-0.0958 1.152,-0.2858 0.322,-0.1902 0.5978,-0.4821 0.828,-0.8781 v 0.972 z m 1.5741,-5.9159 v 5.9159 h 1.9119 v -1.1999 c 0.2761,0.4819 0.5962,0.8339 0.9601,1.0579 0.362,0.2219 0.798,0.3339 1.304,0.3339 0.3841,0 0.7239,-0.0618 1.0221,-0.184 0.298,-0.1239 0.542,-0.2999 0.728,-0.5318 0.1579,-0.1981 0.2678,-0.4422 0.3339,-0.7262 0.066,-0.2857 0.1001,-0.7118 0.1001,-1.2779 v -3.3879 h -2.088 v 3.1699 c 0,0.474 -0.078,0.8161 -0.2322,1.0321 -0.1539,0.2141 -0.4,0.3221 -0.7398,0.3221 -0.434,0 -0.7501,-0.1602 -0.9499,-0.4802 -0.1982,-0.3201 -0.2982,-0.8399 -0.2982,-1.5599 v -2.484 z m 5.1001,8.604 c -0.118,-0.506 -0.2801,-0.8762 -0.4862,-1.1121 -0.2058,-0.2341 -0.472,-0.352 -0.796,-0.352 -0.0898,0 -0.172,0.004 -0.244,0.0141 -0.072,0.01 -0.1398,0.0258 -0.2078,0.044 l -0.5321,0.1539 -0.0181,0.006 c -0.2018,0.0541 -0.33,0.0819 -0.3798,0.0819 -0.1302,0 -0.2362,-0.038 -0.3201,-0.114 -0.0839,-0.0759 -0.1519,-0.1978 -0.208,-0.3659 h -0.6959 c 0.1099,0.5 0.2658,0.8679 0.4719,1.106 0.2041,0.2379 0.466,0.3581 0.7861,0.3581 0.064,0 0.138,-0.008 0.2239,-0.0241 0.0859,-0.0139 0.186,-0.04 0.3042,-0.074 l 0.5558,-0.15 c 0.0479,-0.0201 0.0981,-0.032 0.152,-0.0399 0.0561,-0.008 0.1159,-0.0122 0.182,-0.0122 0.1241,0 0.2321,0.0402 0.32,0.1221 0.0859,0.082 0.1519,0.2019 0.1962,0.3581 z m 7.2436,-5.6401 c 0,0.462 -0.1219,0.826 -0.3679,1.0961 -0.2461,0.2699 -0.582,0.404 -1.008,0.404 -0.4261,0 -0.76,-0.1341 -1.0041,-0.402 -0.2437,-0.2662 -0.3659,-0.6341 -0.3659,-1.0981 0,-0.4601 0.1222,-0.8241 0.3679,-1.09 0.2461,-0.2658 0.5803,-0.3979 1.0021,-0.3979 0.426,0 0.7619,0.1321 1.008,0.3979 0.246,0.2659 0.3679,0.6299 0.3679,1.09 z m 1.838,2.952 v -5.9159 h -1.9199 v 0.9601 c -0.2738,-0.4102 -0.58,-0.7101 -0.9218,-0.902 -0.3422,-0.1902 -0.7441,-0.286 -1.2042,-0.286 -0.79,0 -1.4199,0.288 -1.8938,0.864 -0.472,0.576 -0.7081,1.3498 -0.7081,2.3178 0,0.9661 0.248,1.732 0.7421,2.3021 0.4938,0.568 1.1579,0.8518 1.9939,0.8518 0.4459,0 0.83,-0.0958 1.152,-0.2858 0.322,-0.1902 0.5978,-0.4821 0.828,-0.8781 v 0.972 z m 11.344,-5.9159 h -6.554 l 3.852,4.5578 c 0.2341,0.2781 0.4059,0.5281 0.5182,0.754 0.1099,0.2242 0.1658,0.434 0.1658,0.6282 0,0.3019 -0.0938,0.5459 -0.2841,0.7358 -0.1899,0.1902 -0.4379,0.2841 -0.7457,0.2841 -0.3683,0 -0.65,-0.118 -0.8462,-0.3521 -0.1978,-0.2339 -0.2959,-0.574 -0.2959,-1.0179 v -0.106 h -2.0639 v 0.0581 c 0,0.972 0.284,1.7379 0.8518,2.296 0.57,0.5579 1.3462,0.838 2.3301,0.838 0.962,0 1.728,-0.2481 2.298,-0.7441 0.5701,-0.4961 0.8558,-1.156 0.8558,-1.98 0,-0.402 -0.0899,-0.792 -0.2699,-1.1739 -0.18,-0.3801 -0.4759,-0.7959 -0.892,-1.25 l -1.5461,-1.7039 h 2.6261 z m 4.9419,3.6119 v 2.4959 c 0,0.2301 0.004,0.4221 0.0142,0.576 0.01,0.1542 0.0258,0.286 0.0439,0.396 -0.074,-0.1678 -0.1562,-0.3359 -0.248,-0.504 -0.0922,-0.1678 -0.2041,-0.3558 -0.3379,-0.5619 l -1.5741,-2.402 z m 0,-3.6119 v 1.9199 h -3.8999 v 1.692 l 3.1921,4.9201 h 2.6637 v -4.9201 h 0.9482 v -1.692 h -0.9482 v -1.9199 z m 6.3601,5.148 h 0.468 c 0.578,0 0.974,0.064 1.19,0.1899 0.214,0.1281 0.322,0.3481 0.322,0.6599 0,0.324 -0.1001,0.5502 -0.3022,0.682 -0.1998,0.1301 -0.5919,0.1962 -1.1738,0.1962 h -0.504 z m -2.1722,-5.148 v 8.5799 h 2.3542 c 0.9677,0 1.6438,-0.0321 2.0299,-0.0941 0.384,-0.0618 0.714,-0.1698 0.9918,-0.3218 0.3161,-0.176 0.5581,-0.4121 0.7242,-0.7061 0.1659,-0.2959 0.2478,-0.6361 0.2478,-1.0239 0,-0.4881 -0.1239,-0.8761 -0.3719,-1.1641 -0.248,-0.2861 -0.644,-0.504 -1.188,-0.654 0.608,-0.0459 1.0859,-0.2599 1.4281,-0.6401 0.3438,-0.3818 0.5159,-0.8898 0.5159,-1.5278 0,-0.4561 -0.0961,-0.8581 -0.29,-1.2062 -0.1919,-0.3478 -0.47,-0.6179 -0.828,-0.8079 -0.292,-0.1559 -0.6539,-0.2678 -1.082,-0.3339 -0.43,-0.066 -1.1319,-0.1 -2.1078,-0.1 z m 2.1722,1.7521 h 0.8198 c 0.5541,0 0.9462,0.07 1.1761,0.2077 0.2298,0.1401 0.3441,0.3722 0.3441,0.6962 0,0.36 -0.106,0.61 -0.3161,0.754 -0.21,0.1421 -0.6001,0.2141 -1.1681,0.2141 h -0.8558 z M 243.4547,529.0143 h 2.1719 v -0.14 c 0,-0.3759 0.0879,-0.6599 0.2639,-0.8541 0.176,-0.1939 0.436,-0.29 0.7801,-0.29 0.36,0 0.6361,0.0922 0.828,0.2781 0.1919,0.186 0.288,0.4541 0.288,0.8059 0,0.394 -0.1021,0.684 -0.3081,0.8702 -0.2039,0.186 -0.5259,0.2778 -0.9638,0.2778 -0.07,0 -0.1242,0 -0.1622,-0.002 -0.036,-0.002 -0.07,-0.004 -0.102,-0.004 v 1.3739 h 0.1222 c 0.394,0 0.6959,0.0862 0.9059,0.258 0.2101,0.1721 0.3161,0.4221 0.3161,0.752 0,0.2619 -0.0882,0.476 -0.2662,0.6401 -0.178,0.1641 -0.4059,0.246 -0.682,0.246 -0.2979,0 -0.5278,-0.0799 -0.6919,-0.242 -0.1642,-0.1599 -0.2501,-0.3881 -0.258,-0.6821 h -2.0741 c 0.0161,0.802 0.2962,1.4242 0.8422,1.8661 0.5439,0.4439 1.3079,0.6658 2.2898,0.6658 0.8762,0 1.5641,-0.1978 2.0662,-0.5938 0.5017,-0.396 0.7537,-0.934 0.7537,-1.6141 0,-0.4339 -0.1159,-0.8019 -0.3458,-1.1038 -0.2302,-0.3041 -0.5661,-0.5221 -1.008,-0.6602 0.534,-0.098 0.9499,-0.3299 1.2458,-0.6998 0.2962,-0.368 0.4442,-0.8402 0.4442,-1.414 0,-0.8322 -0.296,-1.508 -0.8881,-2.0262 -0.5919,-0.5198 -1.364,-0.7798 -2.3159,-0.7798 -1.0001,0 -1.7921,0.2679 -2.376,0.8059 -0.584,0.538 -0.8759,1.266 -0.8759,2.1841 v 0.0819 z m 10.8238,1.5001 c 0.4019,0 0.72,0.1179 0.9499,0.3518 0.2302,0.2341 0.3461,0.5542 0.3461,0.9601 0,0.4039 -0.1159,0.726 -0.3481,0.9621 -0.2339,0.2358 -0.5499,0.3537 -0.9479,0.3537 -0.398,0 -0.7141,-0.1179 -0.9479,-0.3537 -0.2322,-0.2361 -0.3481,-0.5582 -0.3481,-0.9621 0,-0.4059 0.1159,-0.726 0.3481,-0.9601 0.2338,-0.2339 0.5499,-0.3518 0.9479,-0.3518 z m 0.106,-1.37 c -0.1341,-0.0402 -0.2741,-0.072 -0.426,-0.0941 -0.15,-0.0241 -0.3082,-0.036 -0.472,-0.036 -0.726,0 -1.328,0.254 -1.804,0.764 -0.4779,0.5099 -0.716,1.154 -0.716,1.936 0,0.9479 0.2959,1.7079 0.8901,2.278 0.5938,0.57 1.3898,0.854 2.3859,0.854 0.9961,0 1.7881,-0.282 2.374,-0.8441 0.5859,-0.5619 0.8779,-1.3179 0.8779,-2.266 0,-0.508 -0.114,-1.044 -0.3399,-1.6079 -0.2262,-0.564 -0.6242,-1.2801 -1.1939,-2.1461 l -1.19,-1.8119 h -2.3882 z m 7.3338,1.1299 c -0.398,0 -0.714,-0.1179 -0.9479,-0.354 -0.2322,-0.2381 -0.3481,-0.5599 -0.3481,-0.9661 0,-0.4019 0.1159,-0.7219 0.3481,-0.9558 0.2339,-0.2341 0.5499,-0.3521 0.9479,-0.3521 0.398,0 0.714,0.118 0.9482,0.3521 0.2319,0.2339 0.3478,0.5539 0.3478,0.9558 0,0.4062 -0.1159,0.728 -0.3478,0.9661 -0.2342,0.2361 -0.5502,0.354 -0.9482,0.354 z m -0.106,1.372 c 0.138,0.042 0.28,0.074 0.428,0.0961 0.148,0.0218 0.3062,0.032 0.47,0.032 0.726,0 1.328,-0.2542 1.804,-0.7642 0.4782,-0.5099 0.716,-1.1579 0.716,-1.944 0,-0.9459 -0.2979,-1.7019 -0.894,-2.272 -0.5959,-0.5677 -1.3938,-0.8518 -2.3939,-0.8518 -0.9961,0 -1.7861,0.2818 -2.372,0.8439 -0.586,0.5621 -0.8799,1.3181 -0.8799,2.268 0,0.4881 0.0978,0.9901 0.2959,1.506 0.1959,0.516 0.61,1.266 1.2379,2.2499 l 1.2002,1.8561 h 2.3899 z m 6.73,-5.476 v 6.552 h -1.838 l 1.006,1.944 h 2.9679 v -8.496 z m 11.6158,4.142 c 0,-1.36 -0.288,-2.4279 -0.864,-3.204 -0.576,-0.7781 -1.368,-1.1659 -2.376,-1.1659 -1.008,0 -1.802,0.396 -2.3819,1.186 -0.58,0.792 -0.87,1.88 -0.87,3.2658 0,1.3822 0.29,2.4682 0.87,3.2562 0.5799,0.7897 1.3739,1.1837 2.3819,1.1837 1.0242,0 1.8201,-0.396 2.3879,-1.1857 0.5681,-0.792 0.8521,-1.902 0.8521,-3.3361 z m -4.3319,0.0819 c 0,-0.9379 0.0879,-1.6219 0.2619,-2.052 0.1741,-0.432 0.4502,-0.648 0.83,-0.648 0.3722,0 0.644,0.216 0.8181,0.65 0.174,0.434 0.2619,1.116 0.2619,2.05 0,0.9261 -0.0879,1.6061 -0.2619,2.0441 -0.1741,0.438 -0.4459,0.6559 -0.8181,0.6559 -0.3838,0 -0.6619,-0.214 -0.8339,-0.642 -0.1721,-0.4258 -0.258,-1.114 -0.258,-2.058 z m 11.6107,-4.2239 v 8.5799 h 5.256 v -1.8839 h -2.9758 v -1.4879 h 2.8057 v -1.836 h -2.8057 v -1.4522 h 2.9758 v -1.9199 z m 6.7181,0 v 9.0839 h 2.088 v -9.0839 z m 11.9608,3.204 h 2.3261 l -0.8739,2.8318 c -0.0261,0.0862 -0.0641,0.2243 -0.11,0.4162 -0.0482,0.1919 -0.108,0.4379 -0.1823,0.7381 -0.0498,-0.21 -0.0997,-0.4121 -0.1499,-0.6041 -0.0479,-0.1902 -0.0978,-0.3741 -0.148,-0.5502 z m -3.278,-3.204 2.9622,8.5799 h 2.9299 l 2.9639,-8.5799 h -2.3258 l -0.434,1.5361 h -3.3222 l -0.4459,-1.5361 z m 8.9779,0.4921 0.434,1.5959 c 0.3061,-0.2659 0.6401,-0.47 1.006,-0.614 0.366,-0.142 0.7339,-0.214 1.1041,-0.214 0.2619,0 0.4618,0.042 0.5978,0.1259 0.1381,0.0842 0.2061,0.2061 0.2061,0.3662 0,0.2619 -0.2761,0.4578 -0.828,0.5879 -0.18,0.042 -0.326,0.08 -0.434,0.11 -0.6259,0.1721 -1.078,0.398 -1.362,0.6781 -0.2821,0.278 -0.4241,0.642 -0.4241,1.0859 0,0.576 0.216,1.0341 0.648,1.3779 0.432,0.3442 1.016,0.5159 1.7541,0.5159 0.3801,0 0.7659,-0.0439 1.158,-0.1318 0.392,-0.0881 0.7939,-0.2239 1.2041,-0.4079 l -0.4343,-1.44 c -0.2758,0.188 -0.5578,0.332 -0.8438,0.4298 -0.286,0.098 -0.5701,0.1462 -0.8561,0.1462 -0.2378,0 -0.4178,-0.0382 -0.54,-0.1122 -0.1219,-0.074 -0.182,-0.182 -0.182,-0.322 0,-0.2098 0.2741,-0.3878 0.8221,-0.5338 0.1261,-0.034 0.2199,-0.0601 0.282,-0.076 0.722,-0.2061 1.224,-0.4501 1.508,-0.7282 0.2821,-0.2798 0.4241,-0.6579 0.4241,-1.1339 0,-0.604 -0.2321,-1.0938 -0.6982,-1.466 -0.464,-0.3739 -1.08,-0.5599 -1.8439,-0.5599 -0.5199,0 -1.002,0.0598 -1.4479,0.178 -0.4462,0.1199 -0.864,0.2999 -1.2541,0.542 z m 6.6818,-0.4921 v 4.4399 h -0.8878 v 1.476 h 0.8878 v 1.764 h 2.052 v -1.764 h 0.8881 v -1.476 h -0.8881 v -4.4399 z m 3.8642,7.7638 c 0,0.3161 0.112,0.5843 0.3379,0.8062 0.2242,0.222 0.4941,0.3339 0.8121,0.3339 0.328,0 0.6021,-0.1099 0.8221,-0.3279 0.2219,-0.218 0.3319,-0.4882 0.3319,-0.8122 0,-0.324 -0.1119,-0.5978 -0.3379,-0.8237 -0.2242,-0.2262 -0.496,-0.3402 -0.8161,-0.3402 -0.314,0 -0.5839,0.116 -0.8101,0.3461 -0.2259,0.2299 -0.3399,0.5021 -0.3399,0.8178 z m 0.108,-7.7638 v 5.9159 h 2.088 v -5.9159 z m 3.744,0 v 9.0839 h 2.088 v -9.0839 z m 3.744,0 v 9.0839 h 2.088 v -9.0839 z m 7.7641,3.7199 c -0.0402,0.3362 -0.1681,0.6061 -0.3841,0.8102 -0.218,0.2038 -0.4841,0.3058 -0.8019,0.3058 -0.3401,0 -0.612,-0.0918 -0.8141,-0.278 -0.2001,-0.186 -0.3339,-0.4658 -0.402,-0.838 z m 2.0517,-1.1758 h -4.4997 c 0.004,-0.4561 0.1219,-0.8081 0.3518,-1.0562 0.2322,-0.248 0.5581,-0.3719 0.9802,-0.3719 0.3178,0 0.584,0.0601 0.8019,0.178 0.216,0.12 0.3819,0.296 0.4961,0.5301 l 1.5698,-0.6321 c -0.1879,-0.4541 -0.5198,-0.8039 -0.9958,-1.05 -0.4782,-0.246 -1.0621,-0.3699 -1.7541,-0.3699 -1.032,0 -1.86,0.286 -2.482,0.8578 -0.6239,0.574 -0.936,1.328 -0.936,2.266 0,0.9221 0.3121,1.688 0.934,2.2981 0.624,0.61 1.412,0.9138 2.3641,0.9138 0.98,0 1.7538,-0.3078 2.3199,-0.9258 0.5661,-0.6179 0.8498,-1.464 0.8498,-2.5381 z m 1.2102,-2.5441 v 5.9159 h 1.9697 v -1.394 c 0.2041,0.5102 0.4802,0.89 0.832,1.144 0.3521,0.254 0.7781,0.3821 1.2782,0.3821 0.0819,0 0.1658,-0.002 0.25,-0.008 0.0839,-0.006 0.1678,-0.0162 0.254,-0.0281 l -0.2041,-1.8961 c -0.1239,0.042 -0.2481,0.072 -0.368,0.0922 -0.1219,0.0178 -0.2381,0.028 -0.352,0.028 -0.506,0 -0.8961,-0.1562 -1.1719,-0.466 -0.2741,-0.3101 -0.4121,-0.75 -0.4121,-1.3201 v -2.45 h -2.0758 z m 9.5499,2.9441 c 0,0.4399 -0.112,0.788 -0.3339,1.042 -0.2223,0.254 -0.5242,0.3818 -0.902,0.3818 -0.3821,0 -0.684,-0.1278 -0.9063,-0.3818 -0.2199,-0.254 -0.3299,-0.6021 -0.3299,-1.042 0,-0.4422 0.11,-0.79 0.3279,-1.042 0.218,-0.252 0.5222,-0.3782 0.9083,-0.3782 0.3818,0 0.684,0.1262 0.9059,0.3782 0.22,0.252 0.33,0.5998 0.33,1.042 z m 2.0758,0 c 0,-0.4261 -0.0839,-0.832 -0.2497,-1.2141 -0.1662,-0.3841 -0.4063,-0.7279 -0.7243,-1.0321 -0.3197,-0.3039 -0.6778,-0.536 -1.0738,-0.6919 -0.3979,-0.1559 -0.818,-0.2339 -1.2639,-0.2339 -0.4541,0 -0.8782,0.078 -1.2742,0.2339 -0.398,0.1559 -0.752,0.388 -1.0638,0.6919 -0.3141,0.2982 -0.5522,0.6381 -0.7161,1.0222 -0.1641,0.3858 -0.246,0.794 -0.246,1.224 0,0.432 0.0819,0.8399 0.244,1.224 0.1619,0.3818 0.4,0.7259 0.7181,1.0318 0.3078,0.3002 0.6599,0.5281 1.0578,0.68 0.396,0.152 0.8221,0.2279 1.2802,0.2279 0.4578,0 0.8838,-0.0759 1.2778,-0.2279 0.394,-0.1519 0.7481,-0.3798 1.0599,-0.68 0.322,-0.3098 0.5641,-0.6559 0.7282,-1.038 0.1639,-0.3819 0.2458,-0.7898 0.2458,-1.2178" />
      <path
         inkscape:connector-curvature="0"
         id="path71"
         style="fill:none;stroke:#80ce4b;stroke-width:1.41729999;stroke-linecap:butt;stroke-linejoin:miter;stroke-miterlimit:22.92558479;stroke-dasharray:none;stroke-opacity:1"
         d="M 271.8383,637.4259 V 576.7495" />
      <path
         inkscape:connector-curvature="0"
         id="path73"
         style="fill:none;stroke:#80ce4b;stroke-width:1.41729999;stroke-linecap:butt;stroke-linejoin:miter;stroke-miterlimit:22.92558479;stroke-dasharray:none;stroke-opacity:1"
         d="M 323.4373,637.4259 V 576.7495" />
      <path
         inkscape:connector-curvature="0"
         id="path75"
         style="fill:#7b7979;fill-opacity:1;fill-rule:nonzero;stroke:none"
         d="m 285.8734,629.7007 c 0.6424,0 1.1506,0.1885 1.5183,0.5624 0.3674,0.3738 0.5527,0.8852 0.5527,1.5341 0,0.6454 -0.1853,1.1599 -0.5561,1.5372 -0.3739,0.377 -0.8788,0.5655 -1.5149,0.5655 -0.636,0 -1.1409,-0.1885 -1.5148,-0.5655 -0.3708,-0.3773 -0.5561,-0.8918 -0.5561,-1.5372 0,-0.6489 0.1853,-1.1603 0.5561,-1.5341 0.3739,-0.3739 0.8788,-0.5624 1.5148,-0.5624 z m 0.1696,-2.1895 c -0.2143,-0.0638 -0.438,-0.1148 -0.6809,-0.15 -0.2395,-0.0385 -0.4921,-0.0575 -0.7543,-0.0575 -1.16,0 -2.122,0.4056 -2.8826,1.2206 -0.7639,0.8152 -1.1443,1.8442 -1.1443,3.0937 0,1.5151 0.4731,2.7295 1.4221,3.6403 0.9493,0.911 2.2213,1.3648 3.8129,1.3648 1.5917,0 2.8573,-0.4507 3.7936,-1.3487 0.9366,-0.8983 1.4032,-2.1061 1.4032,-3.6212 0,-0.8116 -0.1823,-1.6682 -0.5434,-2.5694 -0.3612,-0.9014 -0.9973,-2.0454 -1.908,-3.4293 l -1.9015,-2.8956 h -3.816 z m 12.4673,1.0196 v 3.9886 c 0,0.3674 0.007,0.6744 0.0224,0.9204 0.0159,0.2461 0.0417,0.457 0.0703,0.6327 -0.1182,-0.2684 -0.2492,-0.5368 -0.3963,-0.8053 -0.1471,-0.2684 -0.326,-0.5689 -0.54,-0.898 l -2.5155,-3.8384 z m 0,-5.7719 v 3.0682 h -6.2323 v 2.7037 l 5.101,7.8622 h 4.2571 v -7.8622 h 1.5148 v -2.7037 h -1.5148 v -3.0682 z m 16.0724,0 h -10.4731 l 6.1554,7.2836 c 0.3739,0.4442 0.6489,0.8436 0.8277,1.205 0.1761,0.3578 0.2653,0.6934 0.2653,1.0035 0,0.4824 -0.1502,0.8725 -0.4538,1.1761 -0.3036,0.3036 -0.6999,0.4538 -1.1919,0.4538 -0.5882,0 -1.0387,-0.1885 -1.3519,-0.5627 -0.3166,-0.3739 -0.4731,-0.917 -0.4731,-1.6265 v -0.1695 h -3.2981 v 0.0927 c 0,1.5534 0.4538,2.7774 1.3615,3.6689 0.9107,0.8918 2.1506,1.3393 3.7233,1.3393 1.5372,0 2.7612,-0.3965 3.672,-1.1891 0.9108,-0.7926 1.368,-1.847 1.368,-3.164 0,-0.6423 -0.144,-1.2654 -0.4314,-1.876 -0.2878,-0.6072 -0.7609,-1.2719 -1.4256,-1.9973 l -2.4704,-2.7232 h 4.1961 z m -24.5673,-9.428 v -2.7998 h -5.1933 l -0.2719,-1.7609 c 0.2815,0.0638 0.5658,0.1117 0.8501,0.1406 0.2815,0.032 0.5627,0.0479 0.8374,0.0479 1.3935,0 2.4931,-0.4156 3.2984,-1.2495 0.8053,-0.8342 1.2081,-1.9655 1.2081,-3.3942 0,-1.5245 -0.5017,-2.7261 -1.5021,-3.6051 -1.0037,-0.8788 -2.3779,-1.3198 -4.1195,-1.3198 -0.8312,0 -1.6045,0.0927 -2.3236,0.2812 -0.7192,0.1854 -1.3487,0.4569 -1.8921,0.8149 l 0.246,3.3143 0.2908,-0.0575 c 0.3357,-0.5052 0.7864,-0.9046 1.3488,-1.1954 0.5592,-0.2908 1.1667,-0.4346 1.8153,-0.4346 0.8662,0 1.5372,0.2078 2.0103,0.6231 0.4762,0.4156 0.7126,1.0003 0.7126,1.7546 0,0.7254 -0.2556,1.3199 -0.767,1.7802 -0.5114,0.4635 -1.1761,0.6936 -1.9942,0.6936 -0.5496,0 -1.0451,-0.0927 -1.4893,-0.2749 -0.4411,-0.1854 -0.8405,-0.4635 -1.1954,-0.8405 l -0.46,0.2716 1.1313,7.2102 z m 8.4949,-7.8047 v 3.9887 c 0,0.3673 0.007,0.6743 0.0224,0.9204 0.0159,0.246 0.0417,0.4569 0.0703,0.6327 -0.1182,-0.2685 -0.2492,-0.5369 -0.3963,-0.8054 -0.1471,-0.2684 -0.326,-0.5689 -0.54,-0.898 l -2.5155,-3.8384 z m 0,-5.7719 v 3.0683 h -6.2323 v 2.7036 l 5.101,7.8622 h 4.2571 v -7.8622 h 1.5148 v -2.7036 h -1.5148 v -3.0683 z m 11.9849,5.7719 v 3.9887 c 0,0.3673 0.007,0.6743 0.0224,0.9204 0.0158,0.246 0.0416,0.4569 0.0703,0.6327 -0.1182,-0.2685 -0.2492,-0.5369 -0.3963,-0.8054 -0.1471,-0.2684 -0.326,-0.5689 -0.54,-0.898 l -2.5155,-3.8384 z m 0,-5.7719 v 3.0683 h -6.2323 v 2.7036 l 5.101,7.8622 h 4.257 v -7.8622 h 1.5149 v -2.7036 h -1.5149 v -3.0683 z M 290.613,576.7498 h -10.4732 l 6.1554,7.2836 c 0.3739,0.4442 0.6489,0.8436 0.8278,1.205 0.176,0.3577 0.2653,0.6933 0.2653,1.0035 0,0.4824 -0.1503,0.8725 -0.4538,1.1761 -0.3036,0.3035 -0.6999,0.4538 -1.192,0.4538 -0.5882,0 -1.0386,-0.1885 -1.3519,-0.5627 -0.3166,-0.3739 -0.4731,-0.917 -0.4731,-1.6265 v -0.1695 h -3.2981 v 0.0927 c 0,1.5533 0.4539,2.7773 1.3615,3.6688 0.9108,0.8918 2.1507,1.3394 3.7233,1.3394 1.5372,0 2.7612,-0.3966 3.672,-1.1891 0.9108,-0.7926 1.368,-1.8471 1.368,-3.164 0,-0.6424 -0.144,-1.2654 -0.4314,-1.876 -0.2877,-0.6072 -0.7608,-1.2719 -1.4256,-1.9973 l -2.4703,-2.7233 h 4.1961 z m 7.1302,8.4373 c 0.4987,0 0.8949,0.1406 1.1889,0.4218 0.2942,0.2815 0.4411,0.665 0.4411,1.1506 0,0.4858 -0.1438,0.8662 -0.4315,1.1409 -0.2877,0.275 -0.6871,0.4125 -1.1985,0.4125 -0.4986,0 -0.8915,-0.1375 -1.1792,-0.4156 -0.2877,-0.2781 -0.4314,-0.6585 -0.4314,-1.1378 0,-0.4794 0.1437,-0.8629 0.4345,-1.1472 0.2909,-0.2846 0.684,-0.4252 1.1761,-0.4252 z m 0,-6.0596 c 0.5848,0 1.0483,0.163 1.3904,0.4858 0.3388,0.326 0.508,0.7736 0.508,1.3391 0,0.5562 -0.1692,0.9972 -0.508,1.3167 -0.3421,0.3229 -0.8056,0.4827 -1.3904,0.4827 -0.5785,0 -1.0386,-0.1598 -1.3742,-0.4827 -0.3356,-0.3195 -0.5048,-0.7605 -0.5048,-1.3167 0,-0.5593 0.1692,-1.0066 0.5079,-1.3326 0.3422,-0.3293 0.7991,-0.4923 1.3711,-0.4923 z m 2.4132,4.9442 c 0.8946,-0.1596 1.5882,-0.5528 2.0803,-1.173 0.4955,-0.6231 0.7416,-1.4125 0.7416,-2.3746 0,-1.2974 -0.4601,-2.3136 -1.3808,-3.0424 -0.9204,-0.7319 -2.2051,-1.0962 -3.8543,-1.0962 -1.6426,0 -2.9211,0.3643 -3.8383,1.0962 -0.9173,0.7288 -1.3774,1.745 -1.3774,3.0424 0,0.9621 0.246,1.7515 0.7415,2.3746 0.4921,0.6202 1.1858,1.0134 2.0804,1.173 -0.7254,0.1757 -1.2816,0.5082 -1.6744,0.9972 -0.3932,0.489 -0.5913,1.0961 -0.5913,1.8218 0,1.1665 0.409,2.0741 1.2302,2.7261 0.8215,0.652 1.9624,0.9779 3.4293,0.9779 1.4735,0 2.6207,-0.3259 3.4453,-0.981 0.8215,-0.6554 1.2336,-1.5631 1.2336,-2.723 0,-0.7257 -0.1981,-1.3328 -0.5913,-1.8218 -0.3929,-0.489 -0.949,-0.8215 -1.6744,-0.9972 z m 14.7685,-0.703 c 0,-2.1734 -0.4604,-3.8801 -1.3808,-5.12 -0.9204,-1.2433 -2.1861,-1.8632 -3.7967,-1.8632 -1.6109,0 -2.8797,0.6327 -3.8064,1.8953 -0.9269,1.2653 -1.3904,3.0041 -1.3904,5.2188 0,2.2085 0.4635,3.9439 1.3904,5.203 0.9267,1.2626 2.1955,1.8921 3.8064,1.8921 1.6362,0 2.9083,-0.6329 3.816,-1.8952 0.9077,-1.2657 1.3615,-3.0393 1.3615,-5.3308 z m -6.9225,0.1309 c 0,-1.4989 0.1406,-2.592 0.4187,-3.2791 0.278,-0.6902 0.7191,-1.0355 1.3263,-1.0355 0.5944,0 1.029,0.3453 1.3071,1.0389 0.278,0.6934 0.4186,1.7833 0.4186,3.2757 0,1.4797 -0.1406,2.5665 -0.4186,3.2664 -0.2781,0.6999 -0.7127,1.0482 -1.3071,1.0482 -0.6137,0 -1.0579,-0.3418 -1.3328,-1.0258 -0.2747,-0.6809 -0.4122,-1.7802 -0.4122,-3.2888" />
      <path
         inkscape:connector-curvature="0"
         id="path77"
         style="fill:none;stroke:#ec008c;stroke-width:0.21600001;stroke-linecap:butt;stroke-linejoin:miter;stroke-miterlimit:22.92558479;stroke-dasharray:none;stroke-opacity:1"
         d="M 219.685,752.7141 H 375.5906 V 511.7692 H 219.685 Z" />
      <path
         inkscape:connector-curvature="0"
         id="path79"
         style="fill:#80ce4b;fill-opacity:1;fill-rule:evenodd;stroke:none"
         d="m 235.2067,382.6298 c 4.8563,0 8.7934,-3.937 8.7934,-8.793 0,-4.8564 -3.9371,-8.7934 -8.7934,-8.7934 -4.8563,0 -8.7931,3.937 -8.7931,8.7934 0,4.856 3.9368,8.793 8.7931,8.793" />
      <path
         inkscape:connector-curvature="0"
         id="path81"
         style="fill:#7b7979;fill-opacity:1;fill-rule:nonzero;stroke:none"
         d="m 135.4034,309.4679 -0.5307,0.9961 c 0.6253,0.184 1.1115,0.504 1.4556,0.9575 0.3467,0.4567 0.5188,1.0021 0.5188,1.6396 0,0.8033 -0.2373,1.4318 -0.7115,1.8825 -0.4774,0.4535 -1.1325,0.6789 -1.9744,0.6789 -0.6137,0 -1.1236,-0.1514 -1.5298,-0.4567 -0.406,-0.3024 -0.8745,-0.9575 -1.408,-1.9564 -0.6761,-1.2807 -1.2719,-2.1317 -1.7878,-2.5555 -0.5156,-0.424 -1.1353,-0.6344 -1.8587,-0.6344 -0.9042,0 -1.6393,0.3053 -2.2056,0.9159 -0.5661,0.6109 -0.8507,1.4023 -0.8507,2.3746 0,0.6344 0.1332,1.1888 0.4031,1.6602 0.2698,0.4714 0.6729,0.8538 1.2095,1.1503 l 0.5395,-0.8895 c -0.3646,-0.1837 -0.6432,-0.4476 -0.8329,-0.7855 -0.1927,-0.3381 -0.2877,-0.7381 -0.2877,-1.2035 0,-0.6257 0.184,-1.1206 0.5514,-1.4914 0.3676,-0.3704 0.8657,-0.5572 1.4913,-0.5572 0.8892,0 1.7223,0.7353 2.493,2.2056 0.1364,0.2667 0.2461,0.4683 0.3204,0.6077 0.5958,1.082 1.159,1.8054 1.6897,2.17 0.5306,0.3648 1.2183,0.5485 2.0633,0.5485 1.1413,0 2.0455,-0.332 2.7153,-0.999 0.667,-0.667 1.0021,-1.5743 1.0021,-2.7215 0,-0.8331 -0.2075,-1.5474 -0.6197,-2.1404 -0.415,-0.5959 -1.0343,-1.0613 -1.8555,-1.3964 z m -1.8083,17.9918 c 0.9961,0 1.7638,0.2253 2.3004,0.6729 0.5397,0.4476 0.8093,1.0911 0.8093,1.9239 0,0.8093 -0.2934,1.4496 -0.8805,1.9151 -0.5899,0.4654 -1.3992,0.6996 -2.4279,0.6996 -0.9456,0 -1.6869,-0.231 -2.2294,-0.6965 -0.5423,-0.4626 -0.8121,-1.097 -0.8121,-1.9003 0,-0.8065 0.2874,-1.4409 0.8657,-1.9123 0.5751,-0.4683 1.3665,-0.7024 2.3745,-0.7024 z m 3.7679,5.1939 h -1.4052 c 0.5661,-0.2551 0.999,-0.6137 1.2955,-1.0732 0.2993,-0.4595 0.4476,-1.002 0.4476,-1.6276 0,-1.1087 -0.3793,-1.9982 -1.1384,-2.674 -0.756,-0.6729 -1.7578,-1.0108 -3.0031,-1.0108 -1.2302,0 -2.2382,0.3319 -3.0149,0.9989 -0.7795,0.667 -1.1679,1.5268 -1.1679,2.5793 0,0.6551 0.1423,1.2211 0.4298,1.6985 0.2846,0.4802 0.7055,0.8478 1.26,1.1089 h -1.4052 v 1.0673 h 7.7018 z m 0.1777,14.7005 v -1.1027 h -13.4649 v 1.1027 z m -7.7017,14.114 h 3.8477 c 1.1682,0 1.9953,0.1661 2.4755,0.498 0.4802,0.3351 0.7203,0.8983 0.7203,1.6897 0,0.7886 -0.2429,1.3519 -0.7291,1.6929 -0.4864,0.3407 -1.3104,0.5128 -2.4667,0.5128 h -3.8477 v 1.0672 h 4.3934 c 1.1976,0 2.1047,-0.2758 2.7212,-0.8271 0.6169,-0.5485 0.925,-1.3578 0.925,-2.4251 0,-1.07 -0.3081,-1.8853 -0.925,-2.4426 -0.6165,-0.5544 -1.5236,-0.8331 -2.7212,-0.8331 h -4.3934 z m 3.9339,16.1206 c 0.9961,0 1.7637,0.2253 2.3003,0.6729 0.5397,0.4479 0.8093,1.0911 0.8093,1.9242 0,0.8033 -0.2934,1.4377 -0.8805,1.9001 -0.5898,0.4654 -1.3991,0.6967 -2.4278,0.6967 -0.9457,0 -1.6869,-0.2282 -2.2295,-0.6877 -0.5422,-0.4566 -0.8121,-1.0879 -0.8121,-1.8915 0,-0.8062 0.2874,-1.4437 0.8657,-1.912 0.5751,-0.4683 1.3666,-0.7027 2.3746,-0.7027 z m 3.7678,5.1761 h -1.4051 c 0.572,-0.2549 1.0048,-0.6106 1.3013,-1.0673 0.2934,-0.4595 0.4417,-0.9961 0.4417,-1.6186 0,-1.1058 -0.3793,-1.995 -1.1384,-2.6711 -0.756,-0.6729 -1.7578,-1.0108 -3.003,-1.0108 -1.2303,0 -2.2383,0.3322 -3.015,0.9992 -0.7795,0.667 -1.1678,1.5268 -1.1678,2.579 0,0.6551 0.1423,1.2186 0.4297,1.6897 0.2846,0.4714 0.7055,0.8391 1.26,1.0999 h -7.1683 v 1.0851 h 13.4649 z" />
      <path
         inkscape:connector-curvature="0"
         id="path83"
         style="fill:#80ce4b;fill-opacity:1;fill-rule:evenodd;stroke:none"
         d="m 143.551,384.1447 h 3.1856 13.1201 c 29.6096,0 34.8854,-25.1717 71.4164,-26.9107 7.2706,-0.3462 14.1772,1.1987 20.3615,3.3392 V 308.0075 H 143.551 Z" />
      <path
         inkscape:connector-curvature="0"
         id="path85"
         style="fill:#7b7979;fill-opacity:1;fill-rule:nonzero;stroke:none"
         d="m 143.551,322.2629 h 4.881 c 1.0992,0 1.9369,-0.0901 2.516,-0.2727 0.7758,-0.2454 1.4409,-0.6834 1.9922,-1.3141 0.5544,-0.627 0.9762,-1.3975 1.2657,-2.3066 0.2863,-0.9127 0.4311,-2.0344 0.4311,-3.3721 0,-1.1718 -0.1355,-2.184 -0.4065,-3.0336 -0.3296,-1.0355 -0.8008,-1.8751 -1.4167,-2.5157 -0.4618,-0.4879 -1.0868,-0.8663 -1.8749,-1.1384 -0.5887,-0.2024 -1.3768,-0.3022 -2.3652,-0.3022 h -5.0227 z m 2.6699,-2.4131 v -9.4394 h 1.9922 c 0.7455,0 1.2841,0.0434 1.6169,0.1364 0.4312,0.1162 0.7914,0.3118 1.078,0.5904 0.2863,0.279 0.5171,0.7402 0.6988,1.3774 0.1788,0.6372 0.271,1.5103 0.271,2.6121 0,1.1018 -0.0922,1.9451 -0.271,2.5356 -0.1817,0.591 -0.4346,1.0525 -0.7574,1.381 -0.3266,0.332 -0.7388,0.5542 -1.2382,0.6704 -0.3725,0.093 -1.1018,0.1361 -2.1926,0.1361 z" />
      <path
         inkscape:connector-curvature="0"
         id="path87"
         style="fill:#7b7979;fill-opacity:1;fill-rule:nonzero;stroke:none"
         d="m 157.458,308.0075 v 14.2554 h 9.8042 v -2.4131 h -7.1345 v -3.1595 h 6.639 v -2.3998 h -6.639 v -3.8801 h 7.3874 v -2.4029 z" />
      <path
         inkscape:connector-curvature="0"
         id="path89"
         style="fill:#7b7979;fill-opacity:1;fill-rule:nonzero;stroke:none"
         d="m 170.53,308.0075 v 14.2554 h 2.5985 l 5.4136,-9.519 v 9.519 h 2.4821 v -14.2554 h -2.6822 l -5.3303,9.2968 v -9.2968 z" />
      <path
         inkscape:connector-curvature="0"
         id="path91"
         style="fill:#7b7979;fill-opacity:1;fill-rule:nonzero;stroke:none"
         d="m 187.4058,308.0075 v 11.8423 h -3.9232 v 2.4131 h 10.5098 v -2.4131 h -3.9135 v -11.8423 z" />
      <path
         inkscape:connector-curvature="0"
         id="path93"
         style="fill:#7b7979;fill-opacity:1;fill-rule:nonzero;stroke:none"
         d="m 207.1406,308.0075 h -2.9069 l -1.1546,3.2394 h -5.2872 l -1.0899,-3.2394 h -2.8332 l 5.1517,14.2554 h 2.8238 z m -4.9175,5.6392 -1.823,5.2903 -1.7861,-5.2903 z" />
      <path
         inkscape:connector-curvature="0"
         id="path95"
         style="fill:#7b7979;fill-opacity:1;fill-rule:nonzero;stroke:none"
         d="m 209.6019,308.0075 v 14.1392 h 2.67 v -11.7363 h 6.639 v -2.4029 z" />
      <g
         id="g97">
        <path
           inkscape:connector-curvature="0"
           id="path99"
           style="fill:#80ce4b;fill-opacity:1;fill-rule:nonzero;stroke:none"
           d="m 313.8829,337.3449 v 17.1842 h 6.4882 c 1.1398,0 2.012,-0.0561 2.6158,-0.1641 0.8442,-0.14 1.5522,-0.4079 2.124,-0.7999 0.572,-0.396 1.0321,-0.9482 1.3802,-1.656 0.3478,-0.7081 0.5199,-1.4882 0.5199,-2.34 0,-1.4562 -0.4641,-2.6921 -1.3961,-3.7001 -0.9278,-1.012 -2.6118,-1.516 -5.044,-1.516 h -4.4078 v -7.0081 z m 2.2802,9.0241 h 4.4399 c 1.472,0 2.512,0.2719 3.132,0.8201 0.6159,0.5479 0.9241,1.3158 0.9241,2.3119 0,0.7161 -0.18,1.332 -0.544,1.844 -0.364,0.5119 -0.8442,0.8521 -1.436,1.0159 -0.3841,0.1001 -1.0922,0.1522 -2.1201,0.1522 h -4.3959 z m 21.6,-7.4641 c -0.7841,-0.6679 -1.5401,-1.1359 -2.2641,-1.412 -0.7239,-0.2761 -1.4998,-0.4119 -2.332,-0.4119 -1.368,0 -2.42,0.332 -3.1559,0.9998 -0.7361,0.6642 -1.104,1.5163 -1.104,2.5521 0,0.608 0.14,1.1641 0.4161,1.6681 0.2798,0.504 0.6437,0.904 1.0919,1.2079 0.4518,0.3041 0.9558,0.536 1.5199,0.6922 0.4161,0.108 1.044,0.2118 1.88,0.3158 1.7041,0.2001 2.9641,0.4442 3.7681,0.724 0.008,0.288 0.0119,0.4722 0.0119,0.5482 0,0.8558 -0.1999,1.4598 -0.5999,1.8119 -0.54,0.4759 -1.3441,0.712 -2.408,0.712 -0.9961,0 -1.732,-0.176 -2.2039,-0.5241 -0.4762,-0.3478 -0.8241,-0.964 -1.0522,-1.8519 l -2.0639,0.288 c 0.1879,0.8839 0.496,1.5999 0.928,2.1439 0.432,0.544 1.0559,0.9601 1.872,1.256 0.8119,0.292 1.76,0.4402 2.8321,0.4402 1.0639,0 1.9318,-0.1241 2.5999,-0.3761 0.6639,-0.252 1.156,-0.5641 1.4681,-0.944 0.3118,-0.3801 0.5318,-0.86 0.6599,-1.44 0.068,-0.36 0.104,-1.008 0.104,-1.94 v -2.8001 c 0,-1.9559 0.044,-3.192 0.1319,-3.7159 0.0841,-0.5241 0.2602,-1.0241 0.5161,-1.5041 h -2.2081 c -0.2118,0.444 -0.3479,0.9641 -0.4079,1.56 z m -0.1681,4.68 c -0.7679,-0.3119 -1.9199,-0.576 -3.456,-0.792 -0.872,-0.1239 -1.4879,-0.264 -1.8479,-0.4199 -0.36,-0.1561 -0.6361,-0.3841 -0.832,-0.68 -0.1962,-0.2999 -0.296,-0.6321 -0.296,-1.0001 0,-0.5558 0.2121,-1.0238 0.6398,-1.396 0.4281,-0.3719 1.0522,-0.5599 1.8723,-0.5599 0.8119,0 1.5358,0.1761 2.1719,0.5318 0.6319,0.3521 1.0999,0.8362 1.3961,1.4482 0.2279,0.476 0.3399,1.1759 0.3399,2.0999 z m 5.3801,-6.24 v 12.456 h 1.8961 v -1.7679 c 0.9119,1.3561 2.232,2.0321 3.956,2.0321 0.7521,0 1.44,-0.136 2.0679,-0.4042 0.6282,-0.2679 1.1001,-0.6239 1.412,-1.0599 0.312,-0.4359 0.532,-0.9561 0.6562,-1.5559 0.0759,-0.392 0.1159,-1.076 0.1159,-2.052 v -7.6482 h -2.1121 v 7.568 c 0,0.86 -0.0799,1.504 -0.244,1.9281 -0.1639,0.4241 -0.4559,0.7639 -0.872,1.0199 -0.4158,0.252 -0.9079,0.3801 -1.468,0.3801 -0.8961,0 -1.668,-0.284 -2.3199,-0.856 -0.652,-0.5681 -0.976,-1.6521 -0.976,-3.244 v -6.7961 z m 17.932,1.884 0.288,-1.8638 c -0.5919,-0.1242 -1.124,-0.1882 -1.588,-0.1882 -0.7639,0 -1.3558,0.1201 -1.7799,0.3639 -0.4201,0.2441 -0.716,0.5601 -0.8881,0.9561 -0.172,0.396 -0.2559,1.228 -0.2559,2.496 v 7.1761 h -1.5599 v 1.6319 h 1.5599 v 3.0802 l 2.1121,1.2679 v -4.3481 h 2.1118 v -1.6319 h -2.1118 v -7.2961 c 0,-0.604 0.036,-0.9921 0.1119,-1.1639 0.072,-0.172 0.1919,-0.3081 0.36,-0.4121 0.1681,-0.1001 0.4079,-0.152 0.72,-0.152 0.2319,0 0.54,0.0281 0.9199,0.084 z m 1.292,4.344 c 0,2.3001 0.6401,4.004 1.9239,5.112 1.0681,0.9202 2.3763,1.3802 3.9161,1.3802 1.7081,0 3.1081,-0.5601 4.1961,-1.6801 1.0839,-1.116 1.6279,-2.664 1.6279,-4.636 0,-1.5999 -0.2398,-2.8559 -0.72,-3.7721 -0.4799,-0.9159 -1.18,-1.6279 -2.0999,-2.1359 -0.9161,-0.508 -1.9202,-0.76 -3.0041,-0.76 -1.7439,0 -3.1519,0.5559 -4.2279,1.6719 -1.0761,1.116 -1.6121,2.7241 -1.6121,4.82 z m 2.16,-0.004 c 0,-1.592 0.3481,-2.7839 1.044,-3.572 0.7002,-0.792 1.5761,-1.188 2.636,-1.188 1.0479,0 1.9201,0.396 2.62,1.192 0.6959,0.796 1.044,2.0081 1.044,3.636 0,1.5361 -0.352,2.7 -1.0519,3.488 -0.7002,0.792 -1.5721,1.188 -2.6121,1.188 -1.0599,0 -1.9358,-0.392 -2.636,-1.18 -0.6959,-0.7881 -1.044,-1.9761 -1.044,-3.564 z m 11.9801,-6.2241 v 12.456 h 1.8961 v -1.7679 c 0.9119,1.3561 2.232,2.0321 3.956,2.0321 0.752,0 1.44,-0.136 2.0679,-0.4042 0.6281,-0.2679 1.1001,-0.6239 1.4119,-1.0599 0.3121,-0.4359 0.5321,-0.9561 0.6562,-1.5559 0.076,-0.392 0.116,-1.076 0.116,-2.052 v -7.6482 h -2.1121 v 7.568 c 0,0.86 -0.08,1.504 -0.2441,1.9281 -0.1638,0.4241 -0.4558,0.7639 -0.8719,1.0199 -0.4159,0.252 -0.908,0.3801 -1.4681,0.3801 -0.896,0 -1.6679,-0.284 -2.3199,-0.856 -0.6519,-0.5681 -0.9759,-1.6521 -0.9759,-3.244 v -6.7961 z m 21.844,4.032 2.1841,-0.288 c -0.3401,-1.2679 -0.9759,-2.256 -1.904,-2.9559 -0.9281,-0.7002 -2.1121,-1.052 -3.5561,-1.052 -1.8158,0 -3.2558,0.5599 -4.32,1.6799 -1.0641,1.116 -1.5959,2.688 -1.5959,4.708 0,2.088 0.5361,3.712 1.6118,4.864 1.076,1.1562 2.4721,1.7322 4.1882,1.7322 1.66,0 3.0161,-0.5641 4.068,-1.6962 1.0519,-1.1319 1.58,-2.7238 1.58,-4.7758 0,-0.1242 -0.004,-0.3121 -0.0119,-0.5602 h -9.2761 c 0.08,-1.364 0.4641,-2.412 1.16,-3.1359 0.6919,-0.724 1.5599,-1.088 2.5959,-1.088 0.7722,0 1.4321,0.2039 1.9761,0.612 0.5479,0.4079 0.9799,1.0599 1.2999,1.9559 z m -6.912,3.384 h 6.9361 c -0.0921,1.048 -0.36,1.8321 -0.7959,2.3562 -0.6682,0.8118 -1.5401,1.2198 -2.6082,1.2198 -0.968,0 -1.7799,-0.324 -2.4401,-0.972 -0.6559,-0.648 -1.0199,-1.516 -1.0919,-2.604 z m 17.856,-2.8559 2.1121,0.288 c 0.2438,-1.2001 0.652,-2.0641 1.232,-2.592 0.5799,-0.5281 1.292,-0.792 2.1359,-0.792 1,0 1.8442,0.3439 2.5239,1.0319 0.6801,0.6879 1.0202,1.54 1.0202,2.556 0,0.968 -0.316,1.7682 -0.9521,2.4 -0.6319,0.6282 -1.4361,0.944 -2.416,0.944 -0.4,0 -0.896,-0.08 -1.4919,-0.2359 l 0.2359,1.8479 c 0.14,-0.0158 0.2559,-0.024 0.3401,-0.024 0.904,0 1.7119,0.2361 2.4358,0.7041 0.72,0.468 1.08,1.188 1.08,2.16 0,0.7721 -0.2639,1.4119 -0.7877,1.9199 -0.5241,0.5082 -1.2002,0.7602 -2.0282,0.7602 -0.824,0 -1.508,-0.2602 -2.056,-0.7801 -0.5479,-0.5201 -0.9,-1.2999 -1.0559,-2.34 l -2.1121,0.3841 c 0.26,1.4159 0.8439,2.5158 1.7601,3.2959 0.9119,0.7801 2.052,1.1681 3.412,1.1681 0.936,0 1.8,-0.2001 2.5881,-0.604 0.792,-0.4 1.3957,-0.9482 1.8119,-1.6402 0.4201,-0.6959 0.6278,-1.432 0.6278,-2.2118 0,-0.7402 -0.1998,-1.4122 -0.5958,-2.02 -0.4,-0.608 -0.9921,-1.0922 -1.7719,-1.4522 1.0159,-0.2319 1.8039,-0.72 2.3677,-1.4598 0.5602,-0.7362 0.8402,-1.6642 0.8402,-2.772 0,-1.5001 -0.5479,-2.7763 -1.6401,-3.8203 -1.0959,-1.044 -2.48,-1.5639 -4.1519,-1.5639 -1.508,0 -2.7601,0.4522 -3.7562,1.3522 -0.9998,0.9 -1.5678,2.0639 -1.7079,3.4959 z m 13.468,10.3921 v 2.016 h 11.1121 v -1.6322 c -1.0919,-1.1639 -2.1798,-2.7119 -3.2519,-4.644 -1.076,-1.932 -1.904,-3.92 -2.4919,-5.964 -0.4201,-1.4361 -0.6923,-3.0158 -0.8082,-4.728 h -2.16 c 0.0241,1.3522 0.288,2.988 0.796,4.904 0.5079,1.9202 1.2319,3.7681 2.1801,5.548 0.9479,1.7801 1.9559,3.2802 3.024,4.5002 z m 13.2282,-10.4402 2.2079,0.168 c 0.1641,-1.076 0.5439,-1.8839 1.1361,-2.4278 0.5919,-0.54 1.3161,-0.8122 2.1679,-0.8122 1.0282,0 1.8882,0.3841 2.5881,1.1481 0.6959,0.7679 1.044,1.7841 1.044,3.0481 0,1.2038 -0.332,2.1518 -1.0001,2.8479 -0.6678,0.6959 -1.552,1.044 -2.6518,1.044 -0.684,0 -1.296,-0.1561 -1.84,-0.468 -0.54,-0.3121 -0.964,-0.716 -1.2761,-1.2121 l -1.9919,0.288 1.656,8.8322 h 8.5198 v -2.016 h -6.8358 l -0.9161,-4.636 c 1.0281,0.7239 2.1081,1.0839 3.236,1.0839 1.4961,0 2.7601,-0.5201 3.7879,-1.5601 1.0282,-1.0398 1.5441,-2.376 1.5441,-4.008 0,-1.5559 -0.4519,-2.9001 -1.3561,-4.032 -1.0999,-1.392 -2.6039,-2.088 -4.508,-2.088 -1.5599,0 -2.8321,0.44 -3.8199,1.3162 -0.9879,0.8759 -1.552,2.0358 -1.692,3.4838 z m 33.0962,1.5162 2.2799,-0.576 c -0.476,-1.868 -1.332,-3.2882 -2.5679,-4.2681 -1.2362,-0.98 -2.7482,-1.4721 -4.5363,-1.4721 -1.8479,0 -3.352,0.3759 -4.5119,1.1319 -1.16,0.7521 -2.0401,1.8442 -2.6439,3.2721 -0.6041,1.432 -0.9082,2.9641 -0.9082,4.604 0,1.7881 0.3401,3.348 1.0241,4.68 0.684,1.332 1.656,2.3442 2.916,3.0362 1.26,0.6919 2.6479,1.036 4.1599,1.036 1.72,0 3.164,-0.4362 4.3322,-1.3121 1.1718,-0.8759 1.9879,-2.1039 2.448,-3.6879 l -2.232,-0.5281 c -0.396,1.2481 -0.976,2.16 -1.732,2.7281 -0.756,0.572 -1.7082,0.856 -2.8562,0.856 -1.3158,0 -2.4199,-0.316 -3.3038,-0.9482 -0.8841,-0.6318 -1.508,-1.4839 -1.864,-2.548 -0.36,-1.0678 -0.54,-2.168 -0.54,-3.2998 0,-1.4602 0.212,-2.736 0.6358,-3.8242 0.424,-1.092 1.0842,-1.9041 1.98,-2.4441 0.896,-0.54 1.864,-0.8079 2.908,-0.8079 1.2722,0 2.344,0.368 3.2242,1.1002 0.8798,0.7358 1.476,1.8238 1.7881,3.272" />
        <path
           inkscape:connector-curvature="0"
           id="path101"
           style="fill:#7b7979;fill-opacity:1;fill-rule:nonzero;stroke:none"
           d="m 313.8591,310.5329 v 17.1842 h 2.336 l 9.0159,-13.4881 v 13.4881 h 2.1841 v -17.1842 h -2.3361 l -9.0161,13.4881 v -13.4881 z m 25.588,4.032 2.1841,-0.288 c -0.3401,-1.268 -0.976,-2.2561 -1.904,-2.956 -0.9281,-0.7001 -2.1121,-1.0519 -3.5561,-1.0519 -1.8159,0 -3.2559,0.5598 -4.32,1.6798 -1.0641,1.116 -1.5959,2.6881 -1.5959,4.7081 0,2.088 0.536,3.7119 1.6118,4.8639 1.076,1.1563 2.4721,1.7323 4.1882,1.7323 1.6599,0 3.016,-0.5641 4.068,-1.6963 1.0519,-1.1319 1.58,-2.7238 1.58,-4.7758 0,-0.1241 -0.004,-0.3121 -0.0119,-0.5601 h -9.2761 c 0.0799,-1.364 0.464,-2.412 1.1599,-3.136 0.692,-0.724 1.56,-1.0879 2.596,-1.0879 0.7722,0 1.4321,0.2038 1.976,0.612 0.548,0.4079 0.98,1.0599 1.3,1.9559 z m -6.912,3.384 h 6.9361 c -0.0921,1.048 -0.36,1.832 -0.796,2.3561 -0.6681,0.8119 -1.54,1.2198 -2.6081,1.2198 -0.968,0 -1.7799,-0.324 -2.4401,-0.972 -0.6559,-0.648 -1.0199,-1.516 -1.0919,-2.6039 z m 11.376,-8.4481 2.0401,-0.288 c 0.0839,-0.6319 0.324,-1.0919 0.716,-1.3839 0.5239,-0.388 1.2399,-0.5839 2.1481,-0.5839 0.976,0 1.732,0.1959 2.2638,0.5839 0.532,0.3881 0.892,0.936 1.08,1.6359 0.108,0.428 0.1601,1.328 0.1522,2.7 -0.9241,-1.0879 -2.0721,-1.6319 -3.4481,-1.6319 -1.7121,0 -3.0401,0.616 -3.9761,1.8519 -0.94,1.2322 -1.408,2.7121 -1.408,4.4362 0,1.188 0.216,2.2839 0.644,3.2879 0.4281,1.004 1.052,1.7759 1.8681,2.3241 0.8161,0.5479 1.7759,0.8201 2.88,0.8201 1.468,0 2.6801,-0.6001 3.632,-1.8003 v 1.5361 h 1.944 v -10.7561 c 0,-1.94 -0.1959,-3.312 -0.5919,-4.1199 -0.392,-0.8081 -1.0202,-1.4479 -1.872,-1.9162 -0.856,-0.468 -1.908,-0.7038 -3.1561,-0.7038 -1.4839,0 -2.6801,0.3319 -3.592,1 -0.9159,0.6639 -1.3561,1.668 -1.3241,3.0079 z m 1.728,7.4721 c 0,-1.6279 0.324,-2.8159 0.972,-3.564 0.652,-0.748 1.4641,-1.1239 2.4401,-1.1239 0.972,0 1.7841,0.3719 2.444,1.116 0.6559,0.7438 0.9839,1.9119 0.9839,3.5039 0,1.5199 -0.3399,2.668 -1.0159,3.4401 -0.6761,0.7719 -1.4919,1.156 -2.4441,1.156 -0.9399,0 -1.7359,-0.3801 -2.3958,-1.1401 -0.6562,-0.76 -0.9842,-1.8879 -0.9842,-3.388 z m 11.984,-6.44 v 12.456 h 1.8961 v -1.908 c 0.4839,0.8841 0.9321,1.468 1.3439,1.7481 0.4122,0.284 0.864,0.4241 1.3561,0.4241 0.7121,0 1.4361,-0.2242 2.1719,-0.6682 l -0.7517,-1.9479 c -0.5122,0.288 -1.0242,0.432 -1.5361,0.432 -0.4601,0 -0.8719,-0.1401 -1.2359,-0.4161 -0.3643,-0.2759 -0.6242,-0.66 -0.7801,-1.152 -0.2361,-0.7481 -0.3521,-1.5679 -0.3521,-2.46 v -6.508 z m 7.2241,6.228 c 0,2.3 0.6401,4.0039 1.9239,5.112 1.0681,0.9201 2.3763,1.3802 3.9161,1.3802 1.7081,0 3.1082,-0.5602 4.1961,-1.6801 1.084,-1.116 1.6279,-2.664 1.6279,-4.6361 0,-1.5999 -0.2398,-2.8559 -0.72,-3.772 -0.4799,-0.9159 -1.18,-1.628 -2.0999,-2.136 -0.9161,-0.5079 -1.9202,-0.7599 -3.0041,-0.7599 -1.7439,0 -3.1519,0.5559 -4.2279,1.6719 -1.076,1.116 -1.6121,2.724 -1.6121,4.82 z m 2.16,-0.004 c 0,-1.5919 0.3481,-2.7839 1.044,-3.5719 0.7002,-0.792 1.5761,-1.188 2.636,-1.188 1.0479,0 1.9202,0.396 2.62,1.1919 0.6959,0.796 1.044,2.0081 1.044,3.636 0,1.5361 -0.352,2.7 -1.0519,3.4881 -0.7002,0.792 -1.5721,1.188 -2.6121,1.188 -1.0599,0 -1.9358,-0.3921 -2.636,-1.1801 -0.6959,-0.788 -1.044,-1.976 -1.044,-3.564 z m 26.784,-4.6641 c -0.784,-0.6679 -1.54,-1.1359 -2.264,-1.4119 -0.724,-0.2761 -1.4998,-0.4119 -2.3321,-0.4119 -1.368,0 -2.4199,0.3319 -3.1558,0.9998 -0.7361,0.6641 -1.1041,1.5162 -1.1041,2.552 0,0.608 0.1401,1.1642 0.4162,1.6682 0.2797,0.504 0.6437,0.9039 1.0919,1.2078 0.4518,0.3042 0.9558,0.5361 1.5199,0.6922 0.4161,0.108 1.044,0.2118 1.8799,0.3158 1.7042,0.2001 2.9642,0.4442 3.7681,0.724 0.008,0.288 0.0119,0.4722 0.0119,0.5482 0,0.8558 -0.1998,1.4599 -0.5998,1.8119 -0.54,0.476 -1.3442,0.7121 -2.408,0.7121 -0.9961,0 -1.732,-0.1761 -2.2039,-0.5241 -0.4763,-0.3479 -0.8241,-0.9641 -1.0523,-1.8519 l -2.0639,0.288 c 0.188,0.8838 0.4961,1.5999 0.9281,2.1438 0.432,0.544 1.0559,0.9601 1.872,1.2561 0.8118,0.2919 1.76,0.4402 2.8321,0.4402 1.0638,0 1.9318,-0.1242 2.5999,-0.3762 0.6639,-0.252 1.156,-0.5641 1.4681,-0.9439 0.3118,-0.3801 0.5318,-0.8601 0.6599,-1.44 0.068,-0.36 0.104,-1.008 0.104,-1.9401 v -2.8 c 0,-1.9559 0.044,-3.1921 0.1318,-3.716 0.0842,-0.5241 0.2603,-1.0241 0.5162,-1.504 h -2.2082 c -0.2117,0.4439 -0.3478,0.964 -0.4079,1.5599 z m -0.1681,4.68 c -0.7679,-0.3118 -1.9199,-0.576 -3.456,-0.792 -0.8719,-0.1239 -1.4879,-0.2639 -1.8479,-0.4198 -0.36,-0.1562 -0.6361,-0.3841 -0.8319,-0.6801 -0.1962,-0.2999 -0.296,-0.6321 -0.296,-1 0,-0.5559 0.2121,-1.0239 0.6398,-1.3961 0.428,-0.3719 1.0522,-0.5598 1.8723,-0.5598 0.8118,0 1.5358,0.176 2.1719,0.5318 0.6318,0.352 1.0998,0.8362 1.3961,1.4482 0.2279,0.4759 0.3398,1.1758 0.3398,2.0999 z m 5.3323,-6.2399 v 17.1842 h 2.1118 v -17.1842 z m 22.4399,12.9841 -2.088,-0.1681 c -0.1879,0.828 -0.4561,1.432 -0.8042,1.8079 -0.5717,0.6041 -1.2798,0.9043 -2.1197,0.9043 -0.6761,0 -1.2762,-0.1882 -1.7921,-0.5641 -0.6642,-0.4842 -1.184,-1.188 -1.5721,-2.1161 -0.3841,-0.932 -0.5839,-2.2561 -0.6001,-3.9719 0.508,0.7719 1.1322,1.3479 1.868,1.7198 0.7362,0.3761 1.5041,0.5641 2.3123,0.5641 1.4079,0 2.6078,-0.5199 3.6,-1.556 0.9878,-1.036 1.4839,-2.372 1.4839,-4.0161 0,-1.08 -0.2322,-2.08 -0.6962,-3.0078 -0.468,-0.9281 -1.1038,-1.6362 -1.9199,-2.128 -0.8118,-0.4921 -1.7359,-0.7401 -2.768,-0.7401 -1.7561,0 -3.1921,0.648 -4.3039,1.94 -1.108,1.292 -1.6642,3.424 -1.6642,6.3921 0,3.32 0.616,5.7359 1.8442,7.244 1.0718,1.3119 2.5161,1.9681 4.3359,1.9681 1.3521,0 2.4642,-0.3802 3.3282,-1.1362 0.864,-0.756 1.3838,-1.8 1.5559,-3.1359 z m -8.64,-7.416 c 0,-0.728 0.1559,-1.4241 0.464,-2.088 0.3079,-0.6642 0.7399,-1.1682 1.2878,-1.516 0.5522,-0.3481 1.1361,-0.5241 1.7561,-0.5241 0.9,0 1.6682,0.36 2.304,1.08 0.6361,0.72 0.9561,1.696 0.9561,2.9321 0,1.188 -0.3161,2.124 -0.9439,2.808 -0.6282,0.684 -1.4281,1.0279 -2.4001,1.0279 -0.9522,0 -1.764,-0.3439 -2.4282,-1.0279 -0.6639,-0.684 -0.9958,-1.58 -0.9958,-2.692 z m 11.02,2.912 c 0,2.0279 0.208,3.668 0.6239,4.9079 0.4201,1.2441 1.04,2.2 1.864,2.8681 0.8201,0.6679 1.8562,1.0001 3.104,1.0001 0.9201,0 1.728,-0.1843 2.4281,-0.5562 0.6959,-0.3719 1.2719,-0.9079 1.7201,-1.6081 0.4479,-0.6959 0.7999,-1.548 1.0559,-2.5517 0.2599,-1.0041 0.3881,-2.3602 0.3881,-4.0601 0,-2.016 -0.2081,-3.6482 -0.62,-4.8881 -0.4121,-1.2441 -1.0321,-2.1999 -1.8561,-2.872 -0.8201,-0.6721 -1.8601,-1.008 -3.1161,-1.008 -1.6518,0 -2.952,0.5879 -3.896,1.768 -1.1318,1.44 -1.6959,3.772 -1.6959,7.0001 z m 2.16,-0.008 c 0,-2.8279 0.3279,-4.7078 0.9881,-5.6359 0.6599,-0.932 1.476,-1.396 2.4438,-1.396 0.968,0 1.7841,0.468 2.444,1.4 0.6602,0.936 0.9882,2.812 0.9882,5.6319 0,2.8281 -0.328,4.7081 -0.9882,5.6361 -0.6559,0.932 -1.48,1.3961 -2.4678,1.3961 -0.9681,0 -1.7442,-0.4122 -2.3242,-1.232 -0.7239,-1.044 -1.0839,-2.98 -1.0839,-5.8002 z m 11.5721,4.5881 c 0,1.224 0.3079,2.268 0.9278,3.1241 0.6202,0.86 1.5163,1.2881 2.6921,1.2881 1.08,0 1.976,-0.3841 2.6841,-1.152 0.7081,-0.7682 1.0638,-1.9001 1.0638,-3.3883 0,-1.4519 -0.36,-2.5719 -1.0757,-3.3559 -0.716,-0.7841 -1.6002,-1.1761 -2.6481,-1.1761 -1.044,0 -1.912,0.3881 -2.6039,1.1602 -0.6923,0.7719 -1.0401,1.94 -1.0401,3.4999 z m 3.68,2.9481 c -0.5242,0 -0.9601,-0.224 -1.3079,-0.6761 -0.3481,-0.4518 -0.5242,-1.2798 -0.5242,-2.484 0,-1.0959 0.1761,-1.868 0.5281,-2.3119 0.3521,-0.4482 0.7881,-0.6721 1.304,-0.6721 0.532,0 0.972,0.2239 1.3201,0.676 0.3478,0.4519 0.5198,1.2759 0.5198,2.4721 0,1.1039 -0.176,1.88 -0.5281,2.3239 -0.3517,0.4481 -0.7877,0.6721 -1.3118,0.6721 z m 0.0119,-16.632 9.3722,18.0961 h 1.72 l -9.3481,-18.0961 z m 7.3961,4.6599 c 0,1.2319 0.3079,2.2759 0.9281,3.132 0.616,0.852 1.516,1.2801 2.696,1.2801 1.08,0 1.9758,-0.3841 2.6839,-1.152 0.7081,-0.7682 1.0601,-1.9001 1.0601,-3.388 0,-1.4522 -0.356,-2.5721 -1.072,-3.3562 -0.7161,-0.7838 -1.6042,-1.1758 -2.6601,-1.1758 -1.04,0 -1.904,0.3878 -2.5959,1.1639 -0.692,0.7761 -1.0401,1.944 -1.0401,3.496 z m 3.6839,2.948 c -0.532,0 -0.968,-0.224 -1.3158,-0.6761 -0.3481,-0.4518 -0.5202,-1.2798 -0.5202,-2.484 0,-1.0879 0.1761,-1.8558 0.5281,-2.3079 0.3481,-0.4519 0.7801,-0.6761 1.296,-0.6761 0.54,0 0.98,0.2242 1.3281,0.6761 0.3478,0.4521 0.5198,1.2761 0.5198,2.472 0,1.1041 -0.176,1.88 -0.5278,2.3239 -0.3481,0.4481 -0.784,0.6721 -1.3082,0.6721" />
      </g>
      <path
         inkscape:connector-curvature="0"
         id="path103"
         style="fill:none;stroke:#231f20;stroke-width:0.7087;stroke-linecap:butt;stroke-linejoin:miter;stroke-miterlimit:22.92558479;stroke-dasharray:none;stroke-opacity:1"
         d="m 308.1169,205.3449 v -150.6" />
    </g>
  </g>
</svg>
